<?xml version="1.0" encoding="utf-8"?>
<!-- Uploaded to: SVG Repo, www.svgrepo.com, Generator: SVG Repo Mixer Tools -->
<svg width="800px" height="800px" viewBox="0 -89.55 427.962 427.962" xmlns="http://www.w3.org/2000/svg"><defs><style>.a{fill:#957f6e;}.b{fill:#ffffff;}.c{fill:#b3b3b3;}.d{fill:#211715;}.e{fill:#3d8dcc;}.f{fill:#85807f;}</style></defs><path class="a" d="M277.273,73.085c0,15.569-1.277,26.8-3.064,33.181a75.446,75.446,0,0,0-2.3,16.08c-.052,6.446,6.129,13.438,15.631,13.209l74.036-1.776c10.375,3.72,19.4-5.681,19.333-12.942a35.513,35.513,0,0,0-2.242-12.152c-1.846-5.344-5.422-16.2-5.68-35.6a130.727,130.727,0,0,0-.252-17.612c-.805-11.3-5.857-23.918-13.127-30.932a47.3,47.3,0,0,0-5.438-4.657l-7.765-4.5A52.8,52.8,0,0,0,325.3,11.346c-14.539,0-27.48,7.49-33.222,12.988-9.527,9.12-15.57,25.779-14.807,48.751"/><path class="b" d="M356.914,133.272c-.354-.146-10.286-4.871-10.518-4.955-3.5-1.265-3.364-3.516-3.805-6.035a50.648,50.648,0,0,1-.741-6.7c8.914-4.221,16.046-16.468,17.306-19.887.242-.737.961-2.229,1.537-3.907l.335.056a6.3,6.3,0,0,0,4.856-1.4c3.039-2.487,4.3-5.954,5.069-8.22,1.086-3.2,1.155-8.373-.464-11.18a5.3,5.3,0,0,0-4.763-2.646,5.716,5.716,0,0,0-3.9,1.314l-1.866-1.452c-2.706-2.1-7.311-5.139-10.9-9.972-5.493-7.4-6.522-12.032-8.155-17.15-4.2,6.088-19.242,14.5-30,16.928,0,0-.565.127-1.411.322a88.855,88.855,0,0,1-8.265,5.487c-.976.577-7.681,3.484-10.089,4.605,0,0-.874.407-2.011.933a5.849,5.849,0,0,0-3.527-1.015,5.3,5.3,0,0,0-4.763,2.646c-1.619,2.807-1.55,7.98-.464,11.18.769,2.266,2.03,5.733,5.068,8.22a6.2,6.2,0,0,0,5.129,1.343,42.944,42.944,0,0,0,7.988,14.817,35.6,35.6,0,0,0,11.541,9.421,47.223,47.223,0,0,1-.731,6.263c-.441,2.519-.3,4.77-3.805,6.035-.232.084-11.308,5.265-11.983,5.494,0,0,0,20.805,32.226,20.805S356.914,133.272,356.914,133.272Z"/><path class="b" d="M318.41,184.974c-1.1-2.879-2.226-6-3.567-9.927-3.437-10.056-7.482-20.855-10.859-31.523l1.953.741a54.622,54.622,0,0,0,40.58.25l.942-.249c-3.328,10.426-7.265,20.958-10.623,30.781-3.764,11.012-5.863,15.724-10.219,26.4h-1.554C322.258,194.575,320.39,190.174,318.41,184.974Z"/><path class="b" d="M144.129,63.233a5.874,5.874,0,0,1,4.246-1.555,5.455,5.455,0,0,1,4.9,2.72c1.663,2.886,1.593,8.2.476,11.491-.791,2.33-2.086,5.894-5.209,8.449a6.472,6.472,0,0,1-4.992,1.441l-.479-.081a38.047,38.047,0,0,1-1.718,4.662c-1.259,3.419-8.178,15.346-16.962,20.124v3.854c-.729.591-15.6,12.318-16.73,13.117h-2.62c-1.127-.8-16-12.526-16.73-13.117v-4.15a35.183,35.183,0,0,1-9.854-8.507,44.677,44.677,0,0,1-8.475-15.989,6.353,6.353,0,0,1-5.4-1.354c-3.124-2.555-4.419-6.119-5.21-8.449-1.117-3.289-1.187-8.6.477-11.491a5.452,5.452,0,0,1,4.9-2.72,5.876,5.876,0,0,1,4.246,1.555s-4.431-35.3,36.458-35.3C153.889,27.932,144.129,63.233,144.129,63.233Z"/><path class="c" d="M125.122,149.024c2.58-9.3,4.948-18.685,6.987-27.741,1.623,1.039,3.638,2.447,5.7,4.05,18.1,7.089,33.956,12.329,42.1,24.713,4.527,6.879,7.227,15.959,9.06,27.792,2.305,17.685,6.535,56.3,7.683,69.027H55.607c-.026-3.278-.088-8.964-.172-15.877l-2.987,2a75.177,75.177,0,0,1-8.856,6.186c-4.745,2.507-8.745,4.591-16.217,3.441-6.369-.98-11.485-6.449-13.134-12.678a41.13,41.13,0,0,1-1.012-8.779c-.487-11.354-.132-16.977-1.3-27.893l10.321-36.535,21.775-16.442c8.269-6.289,19.166-10.9,30.634-14.778,2.141-1.676,4.243-3.147,5.924-4.224,3.877,17.216,8.943,35.627,14.394,52.367,4.038,12.4,5.368,16.612,10.535,29.362h1.667c5.166-12.75,6.5-16.959,10.535-29.362C120.3,165.715,122.8,157.4,125.122,149.024Z"/><path class="d" d="M279.272,73.085c-.444-14.173,1.326-29.565,9.423-41.616a36.66,36.66,0,0,1,12.178-11.131A49.421,49.421,0,0,1,323.111,13.4a52.72,52.72,0,0,1,13.653,1.059,51.294,51.294,0,0,1,5.862,1.637,20.944,20.944,0,0,1,3.859,1.634c2.243,1.27,4.261-2.184,2.019-3.454a36.3,36.3,0,0,0-9.066-3.3A57.223,57.223,0,0,0,326.7,9.36a52.865,52.865,0,0,0-24.867,5.9,42.9,42.9,0,0,0-14.789,11.709,52.533,52.533,0,0,0-8.712,17.843,92.328,92.328,0,0,0-3.064,28.275c.08,2.568,4.08,2.579,4,0Z"/><path class="d" d="M374.988,73.085a95.46,95.46,0,0,0,.071-12.02,91.341,91.341,0,0,0-.892-10.409,53.421,53.421,0,0,0-9.207-22.934,44.237,44.237,0,0,0-9.779-9.565,2.016,2.016,0,0,0-2.737.717,2.046,2.046,0,0,0,.718,2.737,40.59,40.59,0,0,1,13.583,17.507,55.629,55.629,0,0,1,3.4,11.618,73.965,73.965,0,0,1,.874,9.447,98.486,98.486,0,0,1-.03,12.9c-.214,2.565,3.787,2.551,4,0Z"/><path class="d" d="M275.273,73.085c-.008,10.187-.194,20.729-2.5,30.705a110.419,110.419,0,0,0-2.6,14.138c-.446,4.539-.318,8.771,2.49,12.591a17.9,17.9,0,0,0,14.873,7.036c2.572-.034,2.579-4.035,0-4a13.941,13.941,0,0,1-11.419-5.055,10.535,10.535,0,0,1-2.165-5.044,28.311,28.311,0,0,1,.3-6.281,116.74,116.74,0,0,1,2.481-12.789A97.028,97.028,0,0,0,278.5,92.234c.582-6.365.773-12.761.778-19.149,0-2.574-4-2.578-4,0Z"/><path class="d" d="M370.988,73.085a118.837,118.837,0,0,0,3.985,30.565c2.133,7.543,6.965,16.772,1.343,23.831a12.66,12.66,0,0,1-14.207,4.369c-2.439-.84-3.487,3.023-1.063,3.857a16.238,16.238,0,0,0,15.651-2.966,16.049,16.049,0,0,0,6.195-12.809c-.163-5.159-1.723-9.826-3.263-14.683a91.271,91.271,0,0,1-2.783-11.281,127.2,127.2,0,0,1-1.858-20.883c-.038-2.572-4.039-2.579-4,0Z"/><path class="d" d="M308.056,116.817a47.214,47.214,0,0,1-.587,4.769,28.069,28.069,0,0,1-.521,2.911c-.036.129-.267.7-.1.343a5.138,5.138,0,0,1-.3.537c-.163.258.191-.207-.018.029-.063.071-.127.141-.194.207a1.344,1.344,0,0,1-.51.385c-.512.3-1.063.494-1.6.738-2.775,1.262-5.532,2.567-8.3,3.84q-1.074.5-2.149.982c-.256.116-.512.228-.768.343-.49.22.476-.174.04-.018a2.051,2.051,0,0,0-1.4,2.46,2.017,2.017,0,0,0,2.46,1.4c1.114-.4,2.191-.956,3.264-1.449q2.554-1.172,5.1-2.357l3.767-1.744a2.281,2.281,0,0,0,.3-.136s-.748.3-.322.142c.209-.077.413-.166.618-.253a7.963,7.963,0,0,0,1.1-.55,6.464,6.464,0,0,0,2.631-3.171,15.362,15.362,0,0,0,.688-3.215c.339-2.056.649-4.11.791-6.19a2,2,0,0,0-4,0Z"/><path class="d" d="M339.862,115.888a65.066,65.066,0,0,0,1.123,8.937,6.965,6.965,0,0,0,4.61,5.319c.726.288-.522-.258-.007-.01.185.09.372.173.558.26q.879.413,1.755.827l4.751,2.249c1.081.511,2.153,1.06,3.253,1.529a2.068,2.068,0,0,0,2.736-.718,2.014,2.014,0,0,0-.717-2.736c-2.333-.995-4.6-2.169-6.895-3.253-1.113-.527-2.221-1.064-3.341-1.574a13.738,13.738,0,0,1-1.686-.8,2.055,2.055,0,0,1-.971-1.356,28.082,28.082,0,0,1-.6-3.316,47.939,47.939,0,0,1-.572-5.36,2.043,2.043,0,0,0-2-2,2.02,2.02,0,0,0-2,2Z"/><path class="d" d="M318.477,100.087a14.847,14.847,0,0,0,7.151,1.658,11.674,11.674,0,0,0,7.249-2.151,2,2,0,0,0,0-2.829,2.064,2.064,0,0,0-2.829,0c.615-.479.173-.137.015-.036-.142.091-.288.175-.437.254-.078.04-.157.076-.235.116-.172.089-.3.032.113-.04a4.961,4.961,0,0,0-.6.219,11.049,11.049,0,0,1-1.687.385c.3-.047.044-.008-.117.008s-.331.03-.5.041c-.4.026-.8.036-1.2.033-.358,0-.716-.014-1.074-.038-.164-.012-.328-.025-.491-.041-.053,0-.65-.1-.194-.02a14.871,14.871,0,0,1-1.576-.35c-.221-.066-.436-.145-.654-.22-.5-.17.334.168-.115-.043-.27-.128-.536-.261-.8-.4a2,2,0,0,0-2.019,3.454Z"/><path class="d" d="M324.537,83.338a33.082,33.082,0,0,1,.78,3.571l-.071-.531a2.14,2.14,0,0,1,.013.493l.072-.532a1.307,1.307,0,0,1-.054.222l.2-.478a.852.852,0,0,1-.078.142l.313-.4a.8.8,0,0,1-.117.115l.4-.313a2.319,2.319,0,0,1-.283.15l.478-.2a2.038,2.038,0,0,1-.477.139l.532-.071a1.918,1.918,0,0,1-.448,0l.532.071c-.169-.023-.334-.064-.5-.087a1.526,1.526,0,0,0-.8-.036,1.477,1.477,0,0,0-.743.238,2,2,0,0,0-.718,2.736,1.916,1.916,0,0,0,1.195.919c.4.054.787.155,1.193.173a3.849,3.849,0,0,0,1.776-.425,2.6,2.6,0,0,0,1.43-1.71,4.215,4.215,0,0,0-.017-1.823c-.194-1.151-.46-2.291-.756-3.419a2,2,0,0,0-2.46-1.4,2.037,2.037,0,0,0-1.4,2.46Z"/><path class="d" d="M305.816,73.179c-.6,1.938-.207,6.4,3.464,6.776,4.853-.029,5.111-5.419,3.478-7.954C311.42,69.926,307.487,69.063,305.816,73.179Z"/><path class="d" d="M344.678,73.179c.6,1.939.208,6.4-3.464,6.776-4.853-.029-5.111-5.419-3.478-7.954C339.074,69.926,343.007,69.063,344.678,73.179Z"/><path class="d" d="M359.5,88.248a23.522,23.522,0,0,1-1.829,5.787c-.2.485-.386.976-.577,1.464.216-.553-.043.09-.093.194-.1.208-.2.416-.3.623a48.593,48.593,0,0,1-4.027,6.608c-3.559,4.995-8.411,10.414-14.623,11.865-2.506.586-1.445,4.444,1.063,3.858,5.463-1.276,10.016-5.213,13.605-9.353a49.647,49.647,0,0,0,7.767-11.654,31.072,31.072,0,0,0,2.869-8.329,2.068,2.068,0,0,0-1.4-2.46,2.014,2.014,0,0,0-2.461,1.4Z"/><path class="d" d="M287.8,89.168a45.605,45.605,0,0,0,9.907,19.5c4.81,5.547,11.194,10.254,18.605,11.372a2.065,2.065,0,0,0,2.46-1.4,2.016,2.016,0,0,0-1.4-2.46c-6.81-1.027-12.423-5.244-16.839-10.344a41.387,41.387,0,0,1-8.879-17.735c-.584-2.506-4.442-1.446-3.857,1.063Z"/><path class="d" d="M291.146,68.49a8.212,8.212,0,0,0-8.9-1.34,7.8,7.8,0,0,0-4.115,5.29,20.433,20.433,0,0,0,2.989,16.129c2.05,3.05,5.256,5.779,9.175,5.27a2.065,2.065,0,0,0,2-2,2.012,2.012,0,0,0-2-2c-3.084.4-5.176-2.133-6.515-4.6a17.448,17.448,0,0,1-2.127-6.658c-.192-2.239-.195-5.033,1.172-6.946-.167.233.434-.457.493-.5a3.482,3.482,0,0,1,1.358-.615,4.022,4.022,0,0,1,3.638.8c1.915,1.709,4.754-1.11,2.828-2.828Z"/><path class="d" d="M363.009,71.318a3.992,3.992,0,0,1,3.471-.841,3.57,3.57,0,0,1,1.525.651c-.148-.115.357.351.3.3.054.056.405.51.19.209,1.367,1.913,1.363,4.708,1.171,6.946-.364,4.25-3.351,11.948-8.641,11.261a2.01,2.01,0,0,0-2,2,2.049,2.049,0,0,0,2,2c6.436.836,10.34-6.178,11.944-11.368,1.42-4.594,1.464-11.9-3.055-14.867a8.172,8.172,0,0,0-9.737.886c-1.924,1.717.912,4.538,2.829,2.828Z"/><path class="d" d="M319.872,44.862c-4,6.124-9.732,10.916-15.806,14.889a49.875,49.875,0,0,1-6.834,3.806c-2.365,1.069-4.749,2.1-7.1,3.19a2.016,2.016,0,0,0-.717,2.737,2.045,2.045,0,0,0,2.736.717c2.4-1.112,4.826-2.159,7.234-3.249a51.645,51.645,0,0,0,7.416-4.218c6.39-4.269,12.3-9.377,16.528-15.853,1.412-2.161-2.05-4.168-3.454-2.019Z"/><path class="d" d="M339.3,39.946c-2.651,3.924-7.75,6.937-11.943,9.3a64.6,64.6,0,0,1-16.986,6.891c-2.508.577-1.446,4.434,1.063,3.857A68.626,68.626,0,0,0,329.7,52.512c4.738-2.7,9.943-5.942,13.054-10.547,1.445-2.139-2.019-4.143-3.454-2.019Z"/><path class="d" d="M361.375,66.84c-1.956-1.511-3.968-2.946-5.832-4.573a36.467,36.467,0,0,1-6.255-7.111A49.889,49.889,0,0,1,343.147,41.6c-.761-2.451-4.624-1.405-3.857,1.063a53.678,53.678,0,0,0,6.544,14.517,40.471,40.471,0,0,0,6.594,7.668c1.946,1.729,4.062,3.236,6.119,4.826a2.066,2.066,0,0,0,2.828,0,2.014,2.014,0,0,0,0-2.829Z"/><path class="c" d="M244.431,246.865c2.52-19.45,6.766-52.963,9.916-68.353,1.33-6.55,4.377-17.674,8.71-24.257,6.769-10.284,17.895-15.465,30.955-21.771a37.547,37.547,0,0,1,5.7-4.189c3.614,15.318,10.041,31.851,15.134,46.752,3.764,11.012,5.863,15.724,10.22,26.4h1.554c4.356-10.677,6.455-15.389,10.219-26.4,5.094-14.9,11.52-31.434,15.134-46.752a34.006,34.006,0,0,1,4.328,3.036c2.93.857,5.188,1.514,5.188,1.514a72.489,72.489,0,0,1,17.043,8.771l15.945,11.222,16.672,36.617c1.247,6.752,2.7,12.821,5.131,23.922a41.089,41.089,0,0,1,1.265,8.746c0,6.443-3.54,13.067-9.459,15.613-4.619,1.987-11.194,2.067-16.558.816-3.681-.858-9.761-2.79-14.178-5.79l-3.493-1.743c-.064,7.215-.079,13.946-.09,15.844Z"/><path class="b" d="M105.514,203.012c-5.167-12.75-6.5-16.959-10.535-29.362-5-15.37-9.685-32.147-13.418-48.115a5.483,5.483,0,0,1,1.233-4.517c1.68-1.945,3.8-4.759,5.513-6.68.73.591,15.6,12.318,16.73,13.117h2.62c1.128-.8,16-12.526,16.73-13.117,1.717,1.921,3.834,4.735,5.513,6.68a5.479,5.479,0,0,1,1.233,4.517c-3.733,15.968-8.412,32.745-13.417,48.115-4.039,12.4-5.369,16.612-10.535,29.362Z"/><path class="e" d="M101.023,191.519c1.193,3.227,2.579,6.775,4.491,11.493h1.667c4.756-11.738,6.261-16.237,9.621-26.554-1.63-13.97-3.785-30.583-3.785-31.073a11.616,11.616,0,0,1,.4-2.61q.15-.585.27-1.17c.43-1.94.509-2.933,1.009-4.989l.031-.1c-2.4-3.235-5.3-7.072-7.07-9.061h-2.62c-1.753,1.972-4.621,5.76-7.009,8.978.136.38.224.628.224.628a25.611,25.611,0,0,1,1.226,3.989,16.636,16.636,0,0,1,.969,4.622c.014.821-2.254,16.574-4.356,31.394C97.992,182.9,99.307,186.877,101.023,191.519Z"/><path class="d" d="M94.481,202.551c-9.22-15.981-18.333-32.035-26.843-48.408q-.835-1.607-1.662-3.219c-.353-.688-.532-.542-.028-1.11.422-.475.873-.928,1.315-1.383,1.886-1.944,3.85-3.808,5.824-5.66a2.018,2.018,0,0,0-.405-3.141l-3.567-2.036-1.678-.958-.84-.479-.419-.24c-.25-.164-.277-.164-.083,0l.273,1.009a6.858,6.858,0,0,1,1.047-1.646,20.5,20.5,0,0,1,1.5-1.848,47.125,47.125,0,0,1,4.128-4.015,73.547,73.547,0,0,1,8.546-6.408l-2.938-1.2a601.3,601.3,0,0,0,18.972,66.159c1.836,5.246,3.872,10.418,5.957,15.569a2.064,2.064,0,0,0,2.461,1.4,2.012,2.012,0,0,0,1.4-2.46A511.63,511.63,0,0,1,87.4,140.7q-2.616-9.931-4.881-19.95a2.015,2.015,0,0,0-2.938-1.2,68.961,68.961,0,0,0-12.9,10.415,31.774,31.774,0,0,0-2.535,3.044,7.568,7.568,0,0,0-1.754,3.539c-.125,2.034,1.742,2.8,3.243,3.655l5.035,2.875-.4-3.141c-1.858,1.743-3.707,3.5-5.49,5.317-1.627,1.66-3.731,3.429-3,6.014a17.41,17.41,0,0,0,1.472,3.074q.887,1.719,1.784,3.434,1.659,3.172,3.349,6.331c4.671,8.735,9.488,17.391,14.375,26.006q4.107,7.242,8.274,14.451c1.286,2.229,4.744.217,3.454-2.019Z"/><path class="d" d="M112.446,141.874c-3.876,0-7.752-.081-11.629-.082a2,2,0,1,0,0,4c3.877,0,7.753.081,11.629.082a2,2,0,0,0,0-4Z"/><path class="d" d="M112.768,136.085c-.485,2.041-.806,4.114-1.279,6.158a11.476,11.476,0,0,0-.432,3.553c.181,2.1.51,4.206.772,6.3,1.014,8.133,2.028,16.267,2.978,24.408a2.061,2.061,0,0,0,2,2,2.012,2.012,0,0,0,2-2c-.938-8.039-1.939-16.072-2.941-24.1-.266-2.138-.548-4.274-.788-6.414a7.786,7.786,0,0,1,.268-2.681c.474-2.044.794-4.118,1.279-6.159.593-2.5-3.263-3.571-3.857-1.063Z"/><path class="d" d="M98.123,176.87c1.155-8.14,2.33-16.277,3.454-24.42.291-2.109.67-4.233.837-6.357a11.7,11.7,0,0,0-.47-3.752,39.581,39.581,0,0,0-1.965-6.29,2.015,2.015,0,0,0-2.737-.717,2.048,2.048,0,0,0-.717,2.736,17.483,17.483,0,0,1,.816,2.762c.266,1.017.624,2.008.86,3.034a7.345,7.345,0,0,1,.177,2.549c-.233,2.054-.5,3.837-.79,5.922-1.086,7.826-2.212,15.647-3.322,23.469a2.067,2.067,0,0,0,1.4,2.461,2.015,2.015,0,0,0,2.46-1.4Z"/><path class="d" d="M52.5,170.345c.234,9.978.377,19.958.525,29.938q.252,17.027.453,34.054.074,6.264.132,12.528c.021,2.573,4.021,2.579,4,0-.071-8.786-.189-17.571-.3-26.356q-.228-17.523-.514-35.046-.127-7.558-.292-15.118c-.06-2.57-4.06-2.579-4,0Z"/><path class="d" d="M159.627,246.865q.072-13.314.224-26.629.171-17.389.4-34.778c.069-5.038.142-10.076.245-15.113.053-2.575-3.947-2.575-4,0-.2,9.921-.314,19.845-.43,29.767q-.2,16.956-.344,33.913-.055,6.42-.1,12.84c-.014,2.574,3.986,2.577,4,0Z"/><path class="d" d="M9.931,193.262c.62,5.876.869,11.757,1,17.662.067,3.087.139,6.173.262,9.258a46.13,46.13,0,0,0,1.171,10.456,19.829,19.829,0,0,0,9.969,12.424,21.615,21.615,0,0,0,16.549.531c5.554-2.083,10.364-5.543,14.984-9.193a2.013,2.013,0,0,0,0-2.829,2.05,2.05,0,0,0-2.829,0c-7.1,5.613-16.55,12.143-26.032,8.33a15.645,15.645,0,0,1-8.784-10.326,41.264,41.264,0,0,1-1.028-9.393c-.116-2.895-.187-5.791-.25-8.688-.131-6.095-.368-12.166-1.008-18.232a2.059,2.059,0,0,0-2-2,2.012,2.012,0,0,0-2,2Z"/><path class="d" d="M379.539,139.889a78.831,78.831,0,0,0-17.521-8.972,2.018,2.018,0,0,0-2.46,1.4,2.04,2.04,0,0,0,1.4,2.461,74.71,74.71,0,0,1,16.566,8.569,2,2,0,0,0,2.019-3.454Z"/><path class="d" d="M374.548,174.79c-.022,9.778-1.254,19.5-1.73,29.254s-.91,19.5-.984,29.272c-.034,4.515-.046,9.031-.07,13.547-.014,2.574,3.986,2.577,4,0,.1-18.5.312-36.993,1.9-55.438.478-5.539.867-11.073.88-16.635.006-2.575-3.994-2.578-4,0Z"/><path class="d" d="M274.087,174.79c.022,9.778,1.254,19.5,1.73,29.254s.91,19.5.984,29.272c.034,4.515.046,9.031.07,13.547.014,2.573,4.014,2.578,4,0-.1-18.5-.312-36.993-1.9-55.438-.478-5.539-.867-11.073-.88-16.635-.006-2.574-4.006-2.579-4,0Z"/><path class="d" d="M409.217,189.987c.8,4.306,1.733,8.584,2.681,12.859q.919,4.138,1.838,8.277a63.106,63.106,0,0,1,1.761,9.605,16.194,16.194,0,0,1-5.247,13.339c-4.047,3.492-10.305,3.709-15.345,3.076a39.681,39.681,0,0,1-16.548-6.108c-2.148-1.433-4.153,2.03-2.019,3.454a43.637,43.637,0,0,0,16.218,6.313c5.837,1.041,12.693,1,17.966-2.059a18.907,18.907,0,0,0,8.772-13.583,29.189,29.189,0,0,0-.6-10.032c-.666-3.294-1.43-6.571-2.16-9.851-1.211-5.439-2.442-10.874-3.459-16.353-.468-2.528-4.324-1.457-3.857,1.063Z"/><path class="d" d="M246.431,246.865c2.282-17.616,4.491-35.249,7.23-52.8a197.528,197.528,0,0,1,4.3-22.046,72.493,72.493,0,0,1,4.845-13.288,34.722,34.722,0,0,1,7.9-10.263c8.044-7.248,18.552-11.417,28.157-16.125,2.311-1.133.286-4.584-2.019-3.454-9,4.413-18.427,8.392-26.387,14.6a40.778,40.778,0,0,0-9.221,9.9,55.627,55.627,0,0,0-5.834,13.217,154.523,154.523,0,0,0-5.058,22.974c-1.47,9.075-2.744,18.182-3.98,27.292-1.356,9.994-2.642,20-3.937,30a2.01,2.01,0,0,0,2,2,2.052,2.052,0,0,0,2-2Z"/><path class="d" d="M305.406,146.194a56.3,56.3,0,0,0,41.643.25,2.061,2.061,0,0,0,1.4-2.461,2.014,2.014,0,0,0-2.46-1.4,52.974,52.974,0,0,1-39.517-.25,2.011,2.011,0,0,0-2.46,1.4,2.052,2.052,0,0,0,1.4,2.461Z"/><path class="b" d="M425.5,160.618a11.293,11.293,0,0,1,.412,1.7,12.263,12.263,0,0,1-1.755,7.966,64.7,64.7,0,0,0-4.906,12.369c-.918,3.22-2.072,8.139-2.413,10.114a12,12,0,0,1-1.686,4.678c-1.133,1.679-2.787,2.241-4.449,3.212-.845.494-5.307.184-6.28.08a24.789,24.789,0,0,1-9.8-4.03c-3.694-2.627-4.71-7.807-2.134-18.647.507-1.954-.24-4.353-1.5-6.5l-2.656,1.323a67.224,67.224,0,0,1-3.1-6.054,5.219,5.219,0,0,1,.915-5.526,7.509,7.509,0,0,1,1.932-1.352l1.193-2.416a5.665,5.665,0,0,1-4.62-1.149,3.517,3.517,0,0,1-1.347-3.024,9.384,9.384,0,0,1,1.9-4.971,16.637,16.637,0,0,1,5.009-4.624,6.666,6.666,0,0,1,6.553-.086c.92.586,1.635,1.462,2.589,1.991l3.8.36c.488-1.611,2.756-3.05,4.154-3.184a7.075,7.075,0,0,1,5.086,1.539,31.091,31.091,0,0,1,2.5,2.239c3.288,3.4,6.085,6.964,9.318,11.04A11.407,11.407,0,0,1,425.5,160.618Z"/><path class="d" d="M405.088,146.56c.561-1.521,2.65-1.938,4.012-1.615,1.957.463,3.511,2.163,4.848,3.571,1.67,1.76,3.251,3.6,4.788,5.477q1.158,1.411,2.292,2.843a14.131,14.131,0,0,1,1.935,2.651A10.386,10.386,0,0,1,424,164.4c-.109,2.178-1.089,3.906-2.074,5.783a62.381,62.381,0,0,0-4.32,10.967,104.018,104.018,0,0,0-2.656,10.882c-.363,1.95-.805,4.14-2.528,5.358a27.749,27.749,0,0,1-2.557,1.441c-.514.287.3-.042-.014.01-.048.008-.4.043-.215.043-.14,0-.689.033-1,.038a20.218,20.218,0,0,1-9.127-1.756,25.641,25.641,0,0,1-2.774-1.462,8.126,8.126,0,0,1-1.6-1.16,5.719,5.719,0,0,1-1.5-2.381c-1.134-3.589-.471-7.655.279-11.307.537-2.616,1.049-4.834.133-7.445a18.622,18.622,0,0,0-4.028-6.454c-1.757-1.889-4.581.945-2.828,2.829a12.439,12.439,0,0,1,3.392,6.113,7.746,7.746,0,0,1-.338,3.007c-.288,1.315-.541,2.638-.736,3.97-.553,3.777-.869,7.856.7,11.444,1.447,3.311,4.628,5.154,7.82,6.537a24.774,24.774,0,0,0,10.889,2.059,10.711,10.711,0,0,0,9.549-8.2c1.055-4.1,1.739-8.285,2.95-12.361a57.279,57.279,0,0,1,4.707-11.477,14.21,14.21,0,0,0,.172-13.666,24.1,24.1,0,0,0-2.583-3.394c-.989-1.24-1.983-2.475-3-3.692a53.606,53.606,0,0,0-6.058-6.462c-2.225-1.909-4.851-3.246-7.873-2.756a7.388,7.388,0,0,0-5.551,4.581c-.892,2.419,2.973,3.462,3.857,1.063Z"/><path class="d" d="M413.268,156.09c-2.046-2.291-4.156-4.529-6.284-6.745a18.309,18.309,0,0,0-2.228-2.122,5.984,5.984,0,0,0-6.863-.12,6.928,6.928,0,0,0-2.865,7.011,2.018,2.018,0,0,0,2.46,1.4,2.042,2.042,0,0,0,1.4-2.46q-.067-.356-.007-.048c-.008-.133-.009-.266,0-.4q.031-.366-.009-.078c.024-.137.053-.273.088-.407,0,0,.193-.6.082-.324a3.741,3.741,0,0,1,.426-.758,2.377,2.377,0,0,1,1.814-.97,2.063,2.063,0,0,1,.947.266c.217.12.555.42.265.155.037.034.078.067.112.1.342.364.71.706,1.058,1.065,2.305,2.377,4.578,4.793,6.784,7.263a2,2,0,0,0,2.828-2.829Z"/><path class="d" d="M404.849,158.764a51.134,51.134,0,0,0-6.053-5.12,9.918,9.918,0,0,0-3.046-1.789,5.808,5.808,0,0,0-6.965,7.1,10.841,10.841,0,0,0,2.229,3.566,18.31,18.31,0,0,0,1.389,1.545c1.409,1.416,2.875,2.775,4.333,4.139a2,2,0,0,0,2.828-2.828,55.847,55.847,0,0,1-6.1-6.156,10.392,10.392,0,0,1-.75-1.153c-.164-.305.117.208-.04-.082-.04-.073-.033-.164-.069-.237.13.264,0,.272.012.065,0-.139.012-.285.008-.423-.007-.292-.086.292,0,0,.025-.086.036-.179.058-.266s.265-.728.1-.37c.084-.177.212-.341.289-.518.083-.192-.036.062-.075.094.007-.006.338-.327.18-.191s.127-.085.172-.113c.078-.048.158-.092.238-.139.321-.186.112-.058.022-.024.112-.043.228-.08.344-.112.085-.023.178-.034.262-.062.277-.092-.294-.015-.007,0a2.539,2.539,0,0,0,.261-.009c.447-.023-.15-.087.059-.01a1.4,1.4,0,0,0,.322.084c.2.017-.044-.01-.1-.046.183.124.376.235.559.362.432.3.865.6,1.294.9a45.471,45.471,0,0,1,5.418,4.618,2,2,0,0,0,2.829-2.828Z"/><path class="d" d="M392.547,158.622a6.293,6.293,0,0,0-4.163-.814,6.932,6.932,0,0,0-3.254,1.737,6.818,6.818,0,0,0-2.274,5.8,13.343,13.343,0,0,0,1.652,4.6,31.433,31.433,0,0,0,2.1,3.95,2.051,2.051,0,0,0,2.737.717,2.019,2.019,0,0,0,.717-2.736,26.823,26.823,0,0,1-1.75-3.235q-.434-.874-.853-1.756-.149-.314-.3-.628c-.049-.105-.1-.21-.145-.315s-.061-.278.023.05c-.042-.165-.105-.322-.144-.488q-.04-.169-.069-.339.039.321.018.1c0-.207-.024-.413-.018-.621,0-.051.051-.638-.009-.181a4.494,4.494,0,0,1,.106-.526c.02-.081.262-.765.085-.356a4.117,4.117,0,0,1,.239-.462c.042-.07.361-.456.085-.15a5.067,5.067,0,0,1,.418-.411c.049-.043.522-.428.256-.226.155-.117.316-.23.48-.334.143-.09.476-.254.126-.112.087-.035.83-.2.5-.163a2.561,2.561,0,0,1,.6,0c-.374-.051.25.094.265.1.224.082.268.1.13.043q.212.1.416.216a2,2,0,0,0,2.018-3.454Z"/><path class="d" d="M400.369,143.942c-.954-.565-1.716-1.467-2.7-2.056a7.648,7.648,0,0,0-3.761-1.029,10.731,10.731,0,0,0-7.057,2.824,16.7,16.7,0,0,0-4.518,5.644c-1.081,2.467-1.62,5.384.156,7.66a7.569,7.569,0,0,0,7.318,2.476,2.015,2.015,0,0,0,1.4-2.46,2.047,2.047,0,0,0-2.46-1.4,3.563,3.563,0,0,1-2.4-.472,5.079,5.079,0,0,1-.439-.286c.425.309-.138-.157-.218-.244a1.356,1.356,0,0,1-.264-.386c.076.151-.112-.342-.118-.379a6.024,6.024,0,0,1,.594-2.741,10.731,10.731,0,0,1,1.908-2.722c1.422-1.614,3.147-3.221,5.363-3.5a3.981,3.981,0,0,1,2.373.4c1,.553,1.79,1.52,2.805,2.121,2.221,1.314,4.235-2.142,2.019-3.454Z"/><path class="b" d="M28.639,148.871c.954-.529,1.669-1.405,2.589-1.991a6.668,6.668,0,0,1,6.553.086,16.637,16.637,0,0,1,5.009,4.624,9.367,9.367,0,0,1,1.9,4.971,3.518,3.518,0,0,1-1.347,3.025,5.669,5.669,0,0,1-4.62,1.148l1.194,2.416a7.521,7.521,0,0,1,1.931,1.352,5.215,5.215,0,0,1,.915,5.526,66.832,66.832,0,0,1-3.1,6.054l-2.743-1.171c-1.2,2.11-1.9,4.443-1.407,6.351,2.575,10.84,1.559,16.02-2.134,18.647a24.794,24.794,0,0,1-9.8,4.03c-.974.1-5.435.414-6.281-.08-1.661-.971-3.316-1.533-4.449-3.212a12,12,0,0,1-1.686-4.678c-.341-1.975-1.5-6.894-2.412-10.114A64.706,64.706,0,0,0,3.84,173.486a12.263,12.263,0,0,1-1.755-7.966,14.25,14.25,0,0,1,1.693-4.655c3.233-4.076,6.031-7.639,9.318-11.04a31.437,31.437,0,0,1,2.5-2.239,7.076,7.076,0,0,1,5.087-1.539c1.4.134,3.666,1.573,4.154,3.184Z"/><path class="d" d="M26.768,148.7c-1.821-4.938-8.054-5.881-12.024-2.959-4.29,3.158-7.607,7.7-10.893,11.837A19.96,19.96,0,0,0,1.7,160.422,16.437,16.437,0,0,0,.565,163.3a13.3,13.3,0,0,0-.176,7.037c.549,2.29,1.853,4.2,2.84,6.3A63.151,63.151,0,0,1,5.65,182.7,98.2,98.2,0,0,1,8.978,195.2c.463,2.24.83,4.519,2.14,6.461a11.894,11.894,0,0,0,5.753,4.182,13.721,13.721,0,0,0,4.831.235,20.67,20.67,0,0,0,5.015-.785c3.659-1.111,7.905-2.916,10.184-6.148,2.246-3.185,2.258-7.5,1.834-11.212q-.233-2.046-.621-4.071a17.761,17.761,0,0,1-.755-4.24c.157-2.477,1.816-4.869,3.451-6.626,1.751-1.883-1.071-4.718-2.829-2.829-2.93,3.151-5.355,7.449-4.343,11.865.841,3.671,1.725,7.764,1.173,11.489a8.04,8.04,0,0,1-1.087,3.19,6.571,6.571,0,0,1-2.3,2.1,20.375,20.375,0,0,1-9.587,3.258c-.778.042-1.556.07-2.335.063-.355,0-.714-.007-1.068-.04.046,0-.583-.148-.132.042a7.676,7.676,0,0,1-4.475-3.87,32.2,32.2,0,0,1-1.254-5.337q-.659-2.979-1.442-5.93a77.883,77.883,0,0,0-3.894-11.142c-1.537-3.528-4.076-6.794-3-10.864a11.708,11.708,0,0,1,.917-2.548,21.222,21.222,0,0,1,2.247-2.947c1.717-2.149,3.458-4.281,5.3-6.322,1.515-1.678,3.288-3.936,5.448-4.8,1.5-.6,4.076-.453,4.756,1.39.883,2.4,4.751,1.36,3.857-1.063Z"/><path class="d" d="M17.559,162.121c2.206-2.47,4.479-4.886,6.785-7.263.347-.359.716-.7,1.057-1.065.035-.037.075-.07.112-.1-.29.265.049-.035.265-.155a2.062,2.062,0,0,1,.6-.228c.319-.089,0-.058.347-.038a2.386,2.386,0,0,1,1.814.97,3.939,3.939,0,0,1,.379.661c.061.124.063.13,0,.017.047.132.089.267.124.4s.065.27.088.407q-.041-.288-.009.078c0,.133,0,.266-.005.4.041-.205.038-.189-.007.048a2.053,2.053,0,0,0,1.4,2.46,2.018,2.018,0,0,0,2.46-1.4,6.884,6.884,0,0,0-2.017-6.342,6.126,6.126,0,0,0-6.983-1.006,10.26,10.26,0,0,0-2.6,2.21c-1.085,1.122-2.155,2.258-3.222,3.4-1.15,1.229-2.3,2.461-3.418,3.716a2.047,2.047,0,0,0,0,2.829,2.02,2.02,0,0,0,2.828,0Z"/><path class="d" d="M25.979,164.8a47.784,47.784,0,0,1,4.711-4.111c.429-.314.864-.62,1.3-.923a7.893,7.893,0,0,0,1.188-.806c.122-.128-.027.008-.105.031.106-.032.214-.059.319-.092.144-.046.3.022-.03,0,.084,0,.173-.006.258,0,.063,0,.427.035.171,0-.239-.032.052.015.084.024.115.031.231.067.347.1.345.088-.073-.058.111.043a4.09,4.09,0,0,1,.55.334c-.339-.261.271.3.062.069-.152-.172.149.26.2.348.179.325.04.089.011.008.051.142.1.286.137.432s.095.642.076.261a5.778,5.778,0,0,1,0,.671c0-.06.1-.311,0-.154-.026.044-.141.386-.062.206s-.078.136-.077.134c-.091.156-.18.31-.278.46a13.152,13.152,0,0,1-1.344,1.733c-.457.509-.949.99-1.438,1.469-1.228,1.2-2.486,2.378-3.742,3.554a2.017,2.017,0,0,0,0,2.828,2.042,2.042,0,0,0,2.829,0c1.294-1.211,2.59-2.42,3.854-3.664a18.29,18.29,0,0,0,3.669-4.547,5.777,5.777,0,0,0-5.424-8.3,6.38,6.38,0,0,0-3.391,1.413,52.744,52.744,0,0,0-6.821,5.659,2,2,0,0,0,2.828,2.829Z"/><path class="d" d="M37.471,165.278q.2-.115.415-.216-.206.079.13-.043c.074-.021.637-.145.265-.1a2.865,2.865,0,0,1,.6,0c-.339-.031.313.106.4.127.168.058.142.047-.08-.034.106.056.21.117.312.182.165.1.326.216.48.335-.269-.207.14.124.191.168a5.348,5.348,0,0,1,.484.468c-.229-.253.009.023.084.15a4.3,4.3,0,0,1,.239.462c-.175-.4.039.183.062.271a4.705,4.705,0,0,1,.129.611c-.05-.361-.012.042-.008.181,0,.179-.01.355-.011.533-.024.238-.02.235.01-.008q-.028.169-.069.339c-.039.165-.1.324-.144.488.118-.405-.048.105-.1.221-.1.225-.21.448-.316.672q-.418.882-.853,1.756a26.747,26.747,0,0,1-1.75,3.235,2.011,2.011,0,0,0,.718,2.736,2.049,2.049,0,0,0,2.736-.717,31.234,31.234,0,0,0,2.1-3.95,13.366,13.366,0,0,0,1.653-4.6,6.82,6.82,0,0,0-2.275-5.8,6.932,6.932,0,0,0-3.254-1.737,6.293,6.293,0,0,0-4.163.814,2,2,0,1,0,2.019,3.454Z"/><path class="d" d="M29.649,150.6c1.016-.6,1.8-1.568,2.805-2.121a4.016,4.016,0,0,1,2.373-.4c2.215.276,3.942,1.883,5.363,3.5a10.992,10.992,0,0,1,1.851,2.6,6.083,6.083,0,0,1,.652,2.864c-.012.071-.21.564-.119.379,0,0-.366.518-.191.308-.073.088-.724.637-.291.322a5.079,5.079,0,0,1-.439.286c-.1.061-.523.264-.488.25.007,0-.476.142-.619.174a3.58,3.58,0,0,1-1.294.048,2.061,2.061,0,0,0-2.46,1.4,2.016,2.016,0,0,0,1.4,2.46,7.83,7.83,0,0,0,6.724-1.8c2.053-1.913,2.069-4.719,1.2-7.218a16.078,16.078,0,0,0-4.282-6.14,11.637,11.637,0,0,0-6.852-3.4,7.89,7.89,0,0,0-4.207.751c-1.194.567-2.046,1.645-3.141,2.293-2.213,1.311-.2,4.77,2.019,3.454Z"/><path class="f" d="M147.159,26.088a33.649,33.649,0,0,0-6.463-7.583l-6-5.333c-7.778-8.667-18.116-11.063-28.3-11.063a46.182,46.182,0,0,0-28.584,9.4,41.69,41.69,0,0,0-8.055,8.389c-5.223,5.111-9.389,16.278-9.077,27.351A58.047,58.047,0,0,0,62.5,62.109a6.847,6.847,0,0,1,2.24-.431,5.876,5.876,0,0,1,4.246,1.555l1.683,1.179a62.469,62.469,0,0,1,.734-6.75c.781-4.744,5.7-6.932,7.8-11.168,1.2-2.44,1.922-5.292,3.984-7.028a10.224,10.224,0,0,1,5.623-1.961,102.213,102.213,0,0,1,17.067.788c2.962.166,5.833.758,10.058,1.3,2.292.292,6.542,1.042,8.167,1.368,6.393,1.47,8.842,3.065,12.053,7.415A31.369,31.369,0,0,1,139.9,57.04l4.225,6.193a5.874,5.874,0,0,1,4.246-1.555,6.951,6.951,0,0,1,2.082.373,48.233,48.233,0,0,0,1.77-14.806C151.814,37.461,150.2,31.125,147.159,26.088Z"/><path class="d" d="M100.178,95.039a15.4,15.4,0,0,0,7.416,1.718,12.081,12.081,0,0,0,7.5-2.219,2,2,0,0,0,0-2.828,2.062,2.062,0,0,0-2.829,0c.611-.476.155-.125,0-.024s-.3.182-.456.264c-.081.042-.163.08-.244.122-.232.119-.171-.047.1-.034a2.57,2.57,0,0,0-.629.229,11.269,11.269,0,0,1-1.76.4c.3-.045-.006,0-.145.012-.173.017-.345.031-.519.043q-.624.039-1.251.034c-.373,0-.747-.014-1.12-.04q-.256-.016-.513-.042c-.037,0-.657-.1-.225-.024a14.66,14.66,0,0,1-1.644-.365c-.23-.069-.455-.152-.682-.229-.5-.173.315.16-.14-.055-.282-.133-.56-.271-.836-.417a2,2,0,0,0-2.019,3.454Z"/><path class="d" d="M106.539,77.619a34.584,34.584,0,0,1,.815,3.725l-.072-.532a2.275,2.275,0,0,1,.014.515l.071-.532a1.216,1.216,0,0,1-.056.231l.2-.477a.929.929,0,0,1-.082.148l.313-.4a.807.807,0,0,1-.122.119l.405-.312a2.6,2.6,0,0,1-.3.156l.477-.2a2.1,2.1,0,0,1-.5.145l.532-.071a1.972,1.972,0,0,1-.467,0l.532.072c-.176-.025-.349-.068-.525-.092a1.515,1.515,0,0,0-.8-.035,1.486,1.486,0,0,0-.743.237,2,2,0,0,0-.718,2.736,1.917,1.917,0,0,0,1.195.92c.409.055.806.158,1.221.177a3.916,3.916,0,0,0,1.81-.432,2.632,2.632,0,0,0,1.452-1.732,4.3,4.3,0,0,0-.018-1.856c-.2-1.2-.48-2.39-.789-3.567a2,2,0,1,0-3.857,1.064Z"/><path class="d" d="M86.849,67.044c-.623,2.022-.217,6.673,3.613,7.069,5.063-.031,5.332-5.654,3.628-8.3C92.7,63.651,88.592,62.75,86.849,67.044Z"/><path class="d" d="M127.545,67.044c.622,2.022.217,6.673-3.613,7.069-5.063-.031-5.332-5.654-3.628-8.3C121.7,63.651,125.8,62.75,127.545,67.044Z"/><path class="d" d="M70.4,61.818a8.385,8.385,0,0,0-9.077-1.368,7.965,7.965,0,0,0-4.2,5.4c-1.492,5.478-.071,11.867,3.066,16.536,2.1,3.12,5.374,5.909,9.382,5.389a2.066,2.066,0,0,0,2-2,2.011,2.011,0,0,0-2-2c-5.47.71-8.56-7.234-8.938-11.631-.2-2.306-.2-5.2,1.212-7.168-.2.28.191-.212.2-.225.076-.073.265-.268.322-.312a3.624,3.624,0,0,1,1.41-.638,4.188,4.188,0,0,1,3.793.842c1.915,1.709,4.754-1.11,2.828-2.829Z"/><path class="d" d="M145.543,64.647a4.156,4.156,0,0,1,3.621-.879,3.714,3.714,0,0,1,1.582.675c-.114-.089.382.369.322.312.053.051.409.51.2.225,1.414,1.968,1.41,4.864,1.212,7.168-.377,4.4-3.467,12.341-8.938,11.631a2.01,2.01,0,0,0-2,2,2.052,2.052,0,0,0,2,2c6.59.855,10.581-6.333,12.223-11.645,1.451-4.7,1.507-12.182-3.114-15.218a8.345,8.345,0,0,0-9.941.9c-1.924,1.718.913,4.539,2.829,2.829Z"/><path class="d" d="M141.847,82.408a43.475,43.475,0,0,1-2.557,7.757c.211-.512-.144.308-.225.479-.187.394-.384.783-.587,1.168-.467.887-.967,1.757-1.489,2.613a46.979,46.979,0,0,1-9.976,11.886,18.7,18.7,0,0,1-7.547,3.946c-2.506.584-1.445,4.442,1.064,3.857,5.73-1.336,10.493-5.5,14.235-9.859a51.032,51.032,0,0,0,7.957-12.03c.094-.21.184-.423.273-.635.022-.051.3-.725.206-.5.1-.223.588-1.376.8-1.945a37.684,37.684,0,0,0,1.7-5.673c.52-2.513-3.335-3.587-3.858-1.064Z"/><path class="d" d="M67.3,83.338A47.3,47.3,0,0,0,77.6,103.752c4.86,5.625,11.1,10.072,18.579,11.189a2.067,2.067,0,0,0,2.461-1.4,2.015,2.015,0,0,0-1.4-2.46c-6.886-1.028-12.342-4.984-16.814-10.161a43.1,43.1,0,0,1-9.266-18.648c-.57-2.51-4.427-1.448-3.857,1.063Z"/><path class="d" d="M136.11,11.758C125.369-.056,107.266-2.225,92.476,1.968A45.911,45.911,0,0,0,72.7,13.363a51.359,51.359,0,0,0-4.191,4.845c-1.026,1.316-2.18,2.5-3.119,3.9a38.29,38.29,0,0,0-4.752,10.485,56.7,56.7,0,0,0-.217,29.484c.634,2.494,4.493,1.437,3.857-1.063a53.566,53.566,0,0,1-.588-24.253,39.129,39.129,0,0,1,3.854-10.506,22.987,22.987,0,0,1,2.478-3.707c1.136-1.344,2.208-2.739,3.365-4.067C83.042,7.393,97.809,2.894,112.237,4.4a32.426,32.426,0,0,1,21.045,10.186c1.735,1.909,4.557-.927,2.828-2.828Z"/><path class="d" d="M152.507,62.075a55.491,55.491,0,0,0,1.751-11.782,68.775,68.775,0,0,0-.77-11.277,35.559,35.559,0,0,0-5.553-15.4,38.567,38.567,0,0,0-5.825-6.522c-1.9-1.728-4.739,1.093-2.828,2.828a30.032,30.032,0,0,1,7.978,10.787c2.274,5.591,2.918,11.882,3,17.867a49.163,49.163,0,0,1-1.615,12.439c-.611,2.5,3.245,3.567,3.857,1.063Z"/><path class="d" d="M106.406,36.364a71.7,71.7,0,0,0-9.382-.837,52.235,52.235,0,0,0-9.019.076,11.493,11.493,0,0,0-6.372,2.571,14.057,14.057,0,0,0-3.246,5.254,16.138,16.138,0,0,1-2.7,4.642c-1.239,1.4-2.633,2.648-3.792,4.115a11.967,11.967,0,0,0-2.56,5.842c-.363,2.395-.543,4.8-.732,7.212-.2,2.567,3.8,2.553,4,0,.259-3.3.044-7.31,2.051-10.115,1.967-2.749,4.845-4.679,6.356-7.788a50.007,50.007,0,0,1,2.383-5.068,6.209,6.209,0,0,1,4.546-2.64,39.306,39.306,0,0,1,8.109-.142,74.251,74.251,0,0,1,9.3.735,2.057,2.057,0,0,0,2.46-1.4,2.017,2.017,0,0,0-1.4-2.46Z"/><path class="d" d="M123.568,42.885c1.1.255,2.2.533,3.276.878.43.137.858.286,1.28.448.07.027.672.281.335.132.172.076.342.154.512.235a10.646,10.646,0,0,1,3.588,2.583,15.7,15.7,0,0,1,2.922,3.948,37.649,37.649,0,0,1,2.494,6.463c.757,2.452,4.62,1.406,3.858-1.064a43.663,43.663,0,0,0-2.9-7.418,21.008,21.008,0,0,0-3.548-4.757c-2.918-3.009-6.756-4.377-10.756-5.3a2,2,0,1,0-1.063,3.857Z"/><path class="d" d="M118.092,38.327c-.588-2.5-2.544-4.646-4.516-6.181a22.782,22.782,0,0,0-11.228-4.408,2.01,2.01,0,0,0-2,2,2.051,2.051,0,0,0,2,2,22.63,22.63,0,0,1,5.107,1.382c-.335-.136.168.075.233.105q.3.137.595.284c.353.175.7.361,1.041.559q.487.282.957.6c.161.108.322.219.48.332.082.06.477.359.113.076a14.612,14.612,0,0,1,1.464,1.3c.194.2.382.4.562.609.1.116.192.242.295.355s.054.066-.117-.153c.05.066.1.133.147.2a10.22,10.22,0,0,1,.764,1.259c.028.057.084.256.129.276-.158-.071-.163-.468-.058-.121.06.2.128.388.175.589a2,2,0,0,0,3.857-1.063Z"/><path class="d" d="M328.545,201.979c3.45-8.45,6.937-16.863,9.91-25.5,3.484-10.117,7.2-20.156,10.5-30.337,1.85-5.713,3.556-11.474,4.944-17.318l-2.938,1.195a38.557,38.557,0,0,1,7.473,5.892c2.172,2.128,4.545,4.569,5.756,7.409l-.273-1.01.015.332.273-1.009c.24-.433-.109-.021-.334.119q-.432.267-.859.542c-.6.383-1.184.776-1.772,1.17-1.159.776-2.312,1.561-3.486,2.315a2.032,2.032,0,0,0,0,3.454c1.565,1.15,3.216,2.188,4.75,3.379.377.293.741.6,1.1.92.181.161,1.017.747,1.065,1.021-.058-.332-.305.324-.36.426q-.4.746-.807,1.489-3,5.508-6.163,10.929c-4.353,7.5-8.862,14.915-13.432,22.289q-3.846,6.207-7.743,12.383c-1.375,2.185,2.085,4.194,3.454,2.019,4.974-7.9,9.92-15.825,14.745-23.82q3.666-6.076,7.22-12.218c2.205-3.824,4.525-7.647,6.479-11.607,1.3-2.629-.088-4.451-2.1-6.145-1.955-1.649-4.132-3.007-6.191-4.519v3.454c1.295-.831,2.563-1.7,3.843-2.555a22.006,22.006,0,0,0,3.609-2.4c2.065-2.115-1-5.5-2.332-7.186a43.468,43.468,0,0,0-11.913-10.525,2.019,2.019,0,0,0-2.938,1.2A307.485,307.485,0,0,1,340.5,158.59c-3.3,9.38-6.408,18.852-10.03,28.115-1.863,4.762-3.847,9.477-5.78,14.211a2.013,2.013,0,0,0,1.4,2.46,2.049,2.049,0,0,0,2.46-1.4Z"/><path class="d" d="M326.991,200.916c-3.45-8.45-6.936-16.864-9.91-25.5-3.484-10.117-7.2-20.157-10.5-30.338-1.849-5.712-3.556-11.474-4.943-17.317a2.02,2.02,0,0,0-2.938-1.2,43.549,43.549,0,0,0-11.914,10.525c-1.35,1.707-4.37,5.04-2.331,7.186a19.623,19.623,0,0,0,3.43,2.284c1.34.891,2.667,1.8,4.021,2.673v-3.454c-1.787,1.312-3.654,2.512-5.4,3.881-1.624,1.273-3.614,2.783-3.442,5.069a7.369,7.369,0,0,0,1.155,2.826q.814,1.5,1.643,3,1.648,2.982,3.343,5.939c4.676,8.173,9.557,16.226,14.51,24.233q4.144,6.7,8.348,13.36c1.368,2.173,4.83.168,3.454-2.019C306.385,187.558,297.282,173,289,157.974q-.822-1.492-1.631-2.992c-.046-.086-.276-.764-.331-.491.006-.028-.238.537.122-.088a5.871,5.871,0,0,1,1.224-1.14c1.731-1.486,3.7-2.678,5.537-4.027a2.031,2.031,0,0,0,0-3.454c-1.174-.754-2.327-1.539-3.485-2.315-.531-.356-1.062-.709-1.6-1.056-.287-.186-.574-.371-.864-.552-.209-.13-.791-.742-.5-.223l.273,1.009.015-.332-.273,1.01c1.212-2.84,3.585-5.281,5.756-7.409a38.594,38.594,0,0,1,7.474-5.892l-2.938-1.195a307.22,307.22,0,0,0,9.543,30.826c3.3,9.381,6.408,18.853,10.031,28.115,1.862,4.762,3.846,9.477,5.779,14.211a2.063,2.063,0,0,0,2.46,1.4,2.012,2.012,0,0,0,1.4-2.46Z"/><path class="d" d="M86.893,112.924c-1.411,1.595-2.717,3.278-4.058,4.93-1.248,1.537-2.595,2.909-3.128,4.876-.748,2.756.464,4.614,1.863,6.789,1.676,2.6,3.47,5.134,5.391,7.564a27.9,27.9,0,0,0,6.253,6.232,2.049,2.049,0,0,0,2.737-.717c3.446-4.6,6.691-9.412,10.5-13.729a2.038,2.038,0,0,0-.4-3.141c-.335-.24-.66-.5-.986-.748l-.19-.147-.408-.317-1.082-.843q-2.778-2.171-5.548-4.351c-2.707-2.128-5.431-4.237-8.112-6.4a2.06,2.06,0,0,0-2.828,0,2.015,2.015,0,0,0,0,2.829c2.749,2.216,5.543,4.379,8.32,6.561,2.921,2.3,5.794,4.7,8.815,6.868l-.405-3.141c-4.034,4.571-7.476,9.663-11.126,14.538l2.736-.718a25.408,25.408,0,0,1-5.246-5.358c-1.633-2.046-3.134-4.2-4.566-6.392-.511-.78-1.013-1.566-1.494-2.364-.45-.748-.564-.816-.451-1.584.239-1.632,1.714-2.891,2.7-4.112,1.165-1.447,2.316-2.907,3.547-4.3C91.422,113.831,88.6,110.992,86.893,112.924Z"/><path class="d" d="M121.668,204.57c9.784-16.961,19.459-34,28.4-51.427.639-1.245,1.279-2.491.9-3.933a8.113,8.113,0,0,0-2.375-3.264c-1.986-2.068-4.066-4.042-6.156-6l-.405,3.141,5.036-2.875c1.5-.856,3.372-1.617,3.243-3.655a7.394,7.394,0,0,0-1.666-3.415,30.927,30.927,0,0,0-2.624-3.168,68.954,68.954,0,0,0-12.9-10.415,2.015,2.015,0,0,0-2.938,1.2,601.25,601.25,0,0,1-18.972,66.16c-1.836,5.246-3.871,10.418-5.957,15.569a2.012,2.012,0,0,0,1.4,2.46,2.049,2.049,0,0,0,2.46-1.4,511.62,511.62,0,0,0,20.048-61.778q2.616-9.931,4.881-19.95l-2.938,1.2a73.643,73.643,0,0,1,8.547,6.408,47.125,47.125,0,0,1,4.128,4.015,20.659,20.659,0,0,1,1.5,1.848,6.827,6.827,0,0,1,1.047,1.646l.273-1.009c.155-.3-.092.011-.292.119-.283.152-.56.32-.839.479l-1.889,1.078-3.567,2.036a2.018,2.018,0,0,0-.405,3.141c1.742,1.634,3.475,3.277,5.154,4.976q.588.6,1.167,1.2c.256.267,1.107.883,1.141,1.216.056.563-.877,1.786-1.177,2.367q-3.121,6.045-6.355,12.033-6.662,12.363-13.629,24.558-3.822,6.73-7.694,13.43c-1.289,2.234,2.166,4.251,3.454,2.019Z"/><path class="d" d="M122.973,115.753c1.231,1.391,2.382,2.851,3.548,4.3.985,1.222,2.459,2.477,2.7,4.112.11.755.024.792-.411,1.517-.493.822-1.01,1.629-1.534,2.431-1.433,2.189-2.933,4.346-4.566,6.392a25.388,25.388,0,0,1-5.247,5.358l2.736.718c-3.649-4.875-7.091-9.967-11.126-14.538l-.4,3.141c3.021-2.166,5.893-4.571,8.815-6.868,2.776-2.182,5.57-4.345,8.319-6.561a2.013,2.013,0,0,0,0-2.829,2.047,2.047,0,0,0-2.828,0c-2.681,2.161-5.405,4.27-8.112,6.4q-2.729,2.147-5.464,4.285l-1.094.853-.48.373-.28.217c.173-.134-.375.288-.5.384s-.261.2-.394.294a2.038,2.038,0,0,0-.405,3.141c3.81,4.317,7.054,9.126,10.5,13.729a2.038,2.038,0,0,0,2.736.717,27.9,27.9,0,0,0,6.253-6.232c1.921-2.43,3.715-4.96,5.391-7.564,1.4-2.174,2.611-4.034,1.863-6.789-.532-1.964-1.881-3.34-3.127-4.876-1.342-1.652-2.648-3.335-4.059-4.93C124.092,110.992,121.272,113.83,122.973,115.753Z"/><path class="d" d="M198.657,246.865c-1.553-17.17-3.541-34.31-5.538-51.432-1.092-9.356-1.934-18.829-4.117-28.008-2.364-9.939-6.432-19.552-14.4-26.271-9.638-8.125-22.1-12.254-33.678-16.744a2.015,2.015,0,0,0-2.46,1.4,2.046,2.046,0,0,0,1.4,2.46c10.1,3.917,20.729,7.542,29.6,13.921a34.531,34.531,0,0,1,9.414,9.958,52.188,52.188,0,0,1,5.573,13.614c2.434,8.959,3.321,18.217,4.4,27.409q1.677,14.256,3.217,28.528c.91,8.383,1.828,16.769,2.587,25.168a2.054,2.054,0,0,0,2,2,2.014,2.014,0,0,0,2-2Z"/><path class="d" d="M45.037,142.012c8.969-6.772,19.6-10.994,30.162-14.578,2.424-.823,1.384-4.688-1.063-3.857-10.868,3.687-21.89,8.014-31.118,14.981a2.064,2.064,0,0,0-.718,2.737,2.015,2.015,0,0,0,2.737.717Z"/></svg>