<?xml version="1.0" encoding="utf-8"?>
<!-- Uploaded to: SVG Repo, www.svgrepo.com, Generator: SVG Repo Mixer Tools -->
<svg width="800px" height="800px" viewBox="-20.2 0 331.532 331.532" xmlns="http://www.w3.org/2000/svg"><defs><style>.a{fill:#ffffff;}.b{fill:#645d5c;}.c{fill:#211715;}</style></defs><path class="a" d="M80.5,274.036c-6.087,20.163-12.742,44.479-13.23,45.742a36.527,36.527,0,0,1,5.47-1.679c-.039.176-.062.272-.062.272-.741,2.222-2.148,6.667-2.994,9.375,13.809-3.968,50.92-5.745,75.364,1.81,15.778-4.667,50.445-4.667,72.179-1.34-.279-1.79-.938-5.371-1.29-7.438l-.332-1.037c1.422.338,2.778.7,4.056,1.1-1.716-8.557-13.339-68.464-14.761-72.91-10.264-1.415-36.617-1.907-59.449,2.113a96.705,96.705,0,0,0-21.132-3.506c-9.78-.524-25.071.365-34.851,1.431C87.7,251.016,84.2,261.755,80.5,274.036Z"/><path class="a" d="M223.287,149.112c-1.112-1.323-4.152-4.852-5.62-5.857a22.471,22.471,0,0,0-5.693-2.488c-9.934-3.292-31.42-9.143-41.354-12.436,0,0-2.643-.745-5.832-1.64a25.425,25.425,0,0,1-4.553,2.551l-3.493,6.867c-1.742,4.662-14.627,25.67-15.455,30-2.5-7.646-13.76-25.443-14.99-29.111l-3.561-7.231a35.131,35.131,0,0,1-6.093-3.561l-5.8,1.681c-7.185,1.926-31.609,8.492-40.074,12.592a19.617,19.617,0,0,0-7.63,5.556C61.373,147.958,60,150.6,58.5,152.987c-1.939,3.249-6.663,10.994-8.5,14.4-9.024,16.773-18.906,44.141-18.735,52.723.191,9.534,14.583,27.506,23.556,30.333.043-2.206,8.312-12.212,11.111-13.556A27.673,27.673,0,0,1,81.265,234c-2.729-3.227-12.111-14.112-10.555-19a68.018,68.018,0,0,1,6.8-15.559l.3-.44c1.877,9.461,3.648,18.948,4.447,24.744.578,4.19,1.077,8.177,1.5,11.285.458,0,.719,0,.719,0,17.841,0,93.34-.039,114.417-.041.39-2.863.843-6.471,1.365-10.255.9-6.529,3.07-17.4,5.242-27.682.28.244.455.394.455.394,3.449,3.144,11.764,13.957,13.926,18.7a2.274,2.274,0,0,1-.222,2.306c-4.091,5.474-9.6,10.146-14.058,13.77,6.889,5.623,20,14.222,24.889,19.555,4.666-3.333,23.162-15.208,25.111-21.333,3.4-10.68-1.014-20.18-5.642-30.387-7.3-16.091-23.95-47.057-26.839-50.946"/><path class="a" d="M176.826,64.933c2.642,4.149,4.8,8.719,5.536,12.168l.163.762,3.4-3.07a6.713,6.713,0,0,1,5.37-1.572,6.339,6.339,0,0,1,4.557,3.03,8.96,8.96,0,0,1,.938,3.6,26.853,26.853,0,0,1-2.738,14.234,17.071,17.071,0,0,1-4.413,5.792c-1.561,1.245-4.384,1.156-6.342,1.5-.381,1.327-.77,2.426-.975,3.05-1.587,4.3-10.751,20-22.089,24.807l-3.493,6.867c-1.742,4.662-14.627,25.67-15.455,30-2.5-7.646-13.76-25.443-14.99-29.111l-3.561-7.231a43.069,43.069,0,0,1-14.919-11.921,46.019,46.019,0,0,1-8.9-17.7l-.5.126c-2.678.669-4.786-.678-6.279-1.869a17.061,17.061,0,0,1-4.413-5.792,26.851,26.851,0,0,1-2.738-14.233,8.96,8.96,0,0,1,.938-3.605,6.338,6.338,0,0,1,4.557-3.029,6.709,6.709,0,0,1,5.37,1.571l3,1.906a258.045,258.045,0,0,1,32.213-24.283c.068.757,2.691,7.693,3.275,7.924.814.321,12.042-6.669,16.059-8.925l8.587.815c4.644.913,7.978,2.738,12.027,6.753A44.045,44.045,0,0,1,176.826,64.933Z"/><path class="b" d="M176.951,23.153c5.554,2.382,11.349,11.046,13.219,17.03,2.977,9.527,3.463,26.236,1,32.406l-.239.6a6.657,6.657,0,0,0-5,1.606l-3.4,3.07-.163-.762c-1.245-5.809-6.5-14.8-11.346-19.6-4.049-4.015-7.383-5.84-12.027-6.753l-8.587-.815c-4.017,2.256-15.245,9.246-16.059,8.925-.584-.231-3.207-7.167-3.275-7.924A258.045,258.045,0,0,0,98.855,75.219l-3-1.906a6.69,6.69,0,0,0-5.289-1.579l-.215-.469c-2.5-5.466-2.4-19.932-.456-28.009a42.074,42.074,0,0,1,13.393-21.627c-.832.036-4.793.386-4.935-.153s7.05-9.1,17.589-12.2A47.015,47.015,0,0,1,131.717,6.9c-1.18-.58-5.236-2.042-5.781-2.941,2.542-1.739,8-2.018,11.081-1.942,12.773.316,29.842,6.4,34.4,16.647Z"/><path class="c" d="M56.769,151.978c-3.945,6.6-8.008,13.118-11.374,20.042a240.108,240.108,0,0,0-10.563,25.467c-2.329,6.636-4.731,13.568-5.464,20.6-.68,6.527,3.065,12.924,6.683,18.062A61.81,61.81,0,0,0,44.9,246.321c2.741,2.5,5.826,4.89,9.394,6.053a2.024,2.024,0,0,0,2.532-1.929c-.047.727-.066.184.034.016.052-.087.222-.505.015-.057a12.273,12.273,0,0,1,.624-1.15c.551-.916,1.171-1.792,1.809-2.649a53.835,53.835,0,0,1,4.86-5.654c.4-.4.806-.8,1.227-1.182.159-.144.322-.285.484-.426.057-.05.477-.383.192-.168a14.048,14.048,0,0,1,3.869-1.8A24.792,24.792,0,0,1,81.265,236c1.9.239,2.394-2.257,1.415-3.415-3.481-4.112-7.3-8.45-9.4-13.467a8.773,8.773,0,0,1-.739-2.829c0-.1.095-.841.01-.411a10.474,10.474,0,0,1,.368-1.21c.35-1.077.712-2.151,1.1-3.216a65.687,65.687,0,0,1,5.223-11c1.306-2.225-2.15-4.24-3.454-2.019a71.114,71.114,0,0,0-4.642,9.372c-.659,1.633-1.251,3.293-1.806,4.963a10.375,10.375,0,0,0-.79,3.723,15.658,15.658,0,0,0,2.286,6.668,53.876,53.876,0,0,0,4.5,6.694c1.453,1.9,2.974,3.737,4.518,5.562L81.265,232a27.679,27.679,0,0,0-12.829,1.678,17.593,17.593,0,0,0-4.389,2.043,22.388,22.388,0,0,0-2.712,2.4,60.643,60.643,0,0,0-5.648,6.683c-1.188,1.614-2.733,3.556-2.866,5.639l2.532-1.929a22.489,22.489,0,0,1-7.178-4.617,55.742,55.742,0,0,1-7.6-8.3c-3.463-4.627-7.626-10.828-7.278-16.608a43.591,43.591,0,0,1,1.47-7.781c.954-3.7,2.106-7.356,3.342-10.974a233.9,233.9,0,0,1,9.812-24.253c3.6-7.625,7.987-14.761,12.307-21.989,1.324-2.215-2.133-4.229-3.454-2.019Z"/><path class="c" d="M204.539,198.856a70.408,70.408,0,0,1,9.214,11.192,55.623,55.623,0,0,1,3.937,6.176c.136.257.429.631.4.939-.039.449-1,1.358-1.34,1.764-1.165,1.4-2.406,2.744-3.694,4.035a114.744,114.744,0,0,1-8.874,7.847,2,2,0,0,0,0,2.828c4.3,3.5,8.846,6.683,13.3,9.977,4,2.957,8.195,5.915,11.59,9.579a2.012,2.012,0,0,0,2.424.312c5.913-4.211,11.995-8.161,17.6-12.795a34.877,34.877,0,0,0,7.415-7.613,15.069,15.069,0,0,0,1.886-5.739,29.9,29.9,0,0,0,.012-9.385c-.921-6.1-3.51-11.819-6.034-17.4q-2.538-5.615-5.268-11.137c-4.028-8.172-8.235-16.258-12.549-24.282-2-3.714-4.016-7.418-6.1-11.083a60.293,60.293,0,0,0-3.613-5.97,2.06,2.06,0,0,0-2.736-.717,2.014,2.014,0,0,0-.718,2.736,51.358,51.358,0,0,1,2.97,4.845c1.706,2.966,3.357,5.964,4.992,8.969q6.243,11.479,12.124,23.153c1.85,3.678,3.672,7.37,5.421,11.1a126.642,126.642,0,0,1,6.094,14.434,34.153,34.153,0,0,1,1.761,8.482,27.51,27.51,0,0,1-1.083,8.812c-.134.513.11-.1-.164.392-.13.234-.256.468-.4.694a9.581,9.581,0,0,1-1.135,1.507,39.255,39.255,0,0,1-3.7,3.658c-5.847,5.185-12.45,9.366-18.8,13.887l2.424.313c-3.455-3.728-7.736-6.743-11.8-9.76-4.373-3.246-8.862-6.358-13.089-9.8v2.828c2.895-2.356,5.749-4.768,8.411-7.388,1.454-1.432,2.852-2.923,4.156-4.493,1.271-1.53,2.742-3.064,2.456-5.2-.318-2.386-2.322-4.86-3.633-6.8-1.739-2.569-3.6-5.056-5.531-7.486a54.049,54.049,0,0,0-5.505-6.24c-1.889-1.744-4.725,1.078-2.828,2.828Z"/><path class="c" d="M205.427,246a146.6,146.6,0,0,0-18.57-1.092,255.216,255.216,0,0,0-26.128,1.1c-5.3.5-10.575,1.184-15.815,2.1h1.063c-14.123-4.022-28.622-4.108-43.162-3.242q-5,.3-9.981.756c-1.3.122-3.532-.041-4.582.77a3.706,3.706,0,0,0-.966,1.427,69.073,69.073,0,0,0-2.836,7.236c-2.707,7.75-5.058,15.628-7.394,23.5-2.532,8.528-4.983,17.079-7.41,25.636-1.386,4.885-2.8,9.762-4.176,14.65-.038.137-.083.275-.133.408a2.01,2.01,0,0,0,2.46,2.46,49.781,49.781,0,0,1,11.3-2.783,141.035,141.035,0,0,1,15.154-1.35,200.918,200.918,0,0,1,33.174,1.182,80.059,80.059,0,0,1,12.789,2.48c.813.239,1.619.5,2.412.8a18.209,18.209,0,0,1,1.78.772,2.528,2.528,0,0,0,2.376-.109l.452-.211c.1-.049.21-.094.315-.139-.184.078-.151.063.015,0q1.182-.464,2.4-.828a71.452,71.452,0,0,1,13.4-2.408,172.774,172.774,0,0,1,17.562-.813c11.569.012,23.408.724,34.676,3.5q1.773.437,3.519.967a2.022,2.022,0,0,0,2.46-2.46c-1.807-9.018-3.548-18.05-5.328-27.073-2.371-12.019-4.735-24.041-7.236-36.034-.678-3.249-1.2-6.632-2.2-9.8-.771-2.446-4.634-1.4-3.857,1.063.84,2.661,1.29,5.489,1.864,8.214,1.116,5.3,2.188,10.613,3.256,15.925q3.7,18.417,7.294,36.855c.78,3.973,1.552,7.947,2.347,11.916l2.46-2.46c-10.155-3.09-21.036-4.052-31.6-4.462a162.89,162.89,0,0,0-32.162,1.559,40.725,40.725,0,0,0-11.949,3.38H146.5a43.714,43.714,0,0,0-11.866-3.547,147.743,147.743,0,0,0-16.872-1.985,192.4,192.4,0,0,0-36.147.726c-5,.616-10.179,1.359-14.878,3.271l2.46,2.46c.874-2.312,1.406-4.8,2.078-7.177q2.215-7.827,4.444-15.649c3.54-12.37,7.087-24.753,11.108-36.977.821-2.5,1.662-4.985,2.587-7.443.173-.459.348-.917.529-1.373.083-.207.167-.413.251-.62.039-.1.08-.194.121-.292.08-.194-.2.448-.013.034a20.222,20.222,0,0,1,.891-1.839l-1.727.99c7.408-.8,14.859-1.284,22.306-1.5a117.346,117.346,0,0,1,23.584,1.313q3.352.585,6.657,1.407a22.253,22.253,0,0,0,3.17.815,14.42,14.42,0,0,0,3.38-.469c4.183-.669,8.391-1.173,12.609-1.564,7.975-.74,15.989-1.083,24-1.072,3.732,0,7.466.087,11.193.286,1.54.081,3.079.183,4.615.316q.963.083,1.925.185.441.047.88.1c.157.019.893.113.583.071a2.07,2.07,0,0,0,2.46-1.4A2.013,2.013,0,0,0,205.427,246Z"/><path class="c" d="M143.736,258c-.422,15.554-.139,31.149-.094,46.707.007,2.283.019,4.566.019,6.848,0,2.574,4,2.578,4,0,0-14.552-.1-29.1-.034-43.656.015-3.3.02-6.6.109-9.9.07-2.575-3.93-2.574-4,0Z"/><path class="c" d="M208.691,172.993c-3.569,16.249-7.457,32.5-10.029,48.947-.882,5.634-1.35,11.34-2.373,16.951-.459,2.516,3.4,3.6,3.857,1.063.952-5.224,1.418-10.534,2.2-15.786.58-3.916,1.307-7.811,2.057-11.7,1.777-9.215,3.751-18.392,5.759-27.56q1.188-5.429,2.391-10.854c.552-2.508-3.3-3.58-3.857-1.063Z"/><path class="c" d="M69.818,170.532c1.658,7.334,3.165,14.706,4.665,22.073,1.939,9.529,3.879,19.074,5.394,28.681.979,6.2,1.493,12.488,2.621,18.668.462,2.529,4.317,1.457,3.857-1.063-1.047-5.734-1.548-11.563-2.414-17.325-.655-4.362-1.449-8.705-2.262-13.04-1.835-9.78-3.83-19.53-5.888-29.265-.69-3.267-1.38-6.535-2.116-9.792-.567-2.51-4.424-1.448-3.857,1.063Z"/><path class="c" d="M253.731,236.952c11.82,0,23.639-.045,35.459-.046,2.573,0,2.578-4,0-4-11.82,0-23.639.046-35.459.046-2.574,0-2.578,4,0,4Z"/><path class="c" d="M1.932,236.952c11.118,0,22.236-.045,33.355-.046,2.573,0,2.578-4,0-4-11.119,0-22.237.046-33.355.046-2.574,0-2.578,4,0,4Z"/><path class="c" d="M96.175,237.026q18.96,0,37.92-.014,23.821-.011,47.642-.022,9.219,0,18.438,0c2.574,0,2.579-4,0-4q-19.276,0-38.554.014-23.733.011-47.464.022-8.991,0-17.982.005c-2.573,0-2.578,4,0,4Z"/><path class="c" d="M53.386,217.542c-.676.3-.217.09-.038.033.139-.044.28-.082.422-.115.17-.04.342-.07.514-.1.152-.027.429-.02-.182.021.087,0,.173-.02.26-.028a15.109,15.109,0,0,1,2.311-.042c.386.02.771.058,1.156.1.356.037-.387-.061-.137-.02.092.015.184.027.276.042.18.03.359.062.537.1a10.316,10.316,0,0,1,1.025.259c.144.045.285.1.427.148.316.115-.155-.083-.208-.089a.748.748,0,0,1,.211.1,2,2,0,1,0,2.018-3.454,13.208,13.208,0,0,0-5.3-1.185,11.429,11.429,0,0,0-5.306.777,2.009,2.009,0,0,0-.718,2.737,2.06,2.06,0,0,0,2.737.717Z"/><path class="c" d="M221.386,218.95a8.266,8.266,0,0,1,.794-.473q.208-.108.422-.208c.081-.037.164-.072.245-.11.225-.106-.41.165-.175.073a19.2,19.2,0,0,1,2.056-.685c.667-.178,1.342-.311,2.024-.423.278-.046-.177.018-.221.028a2.312,2.312,0,0,1,.252-.03c.146-.016.292-.03.438-.041.292-.022.585-.031.878-.025a2,2,0,0,0,0-4,16.175,16.175,0,0,0-4.435.634,14.282,14.282,0,0,0-4.3,1.806,2,2,0,1,0,2.019,3.454Z"/><path class="c" d="M214,321.31c.426,2.48.9,4.952,1.29,7.438l2.461-2.461a229.6,229.6,0,0,0-30.013-2.366,217.477,217.477,0,0,0-29.945,1.226,81.578,81.578,0,0,0-13.285,2.481h1.064c-10.59-3.249-21.776-4.559-32.808-5.078a187.662,187.662,0,0,0-31.021.977,81.144,81.144,0,0,0-12.6,2.29l2.461,2.46c.978-3.131,1.959-6.262,2.993-9.374.814-2.449-3.048-3.5-3.857-1.064-1.034,3.113-2.015,6.244-2.993,9.375a2.016,2.016,0,0,0,2.46,2.46c7.455-2.121,15.4-2.719,23.109-3.1a190.988,190.988,0,0,1,31.577.954,118.519,118.519,0,0,1,15.316,2.754q1.673.423,3.327.909a4,4,0,0,0,2.035.294c.468-.1.934-.268,1.4-.389,1.832-.48,3.691-.859,5.557-1.183a173.663,173.663,0,0,1,29.433-2.045,229.823,229.823,0,0,1,34.727,2.276,2.036,2.036,0,0,0,2.46-2.46c-.392-2.485-.864-4.958-1.289-7.437a2.017,2.017,0,0,0-2.461-1.4,2.046,2.046,0,0,0-1.4,2.46Z"/><path class="c" d="M110.31,125.958c-6.967,1.868-13.921,3.788-20.83,5.861-7.337,2.2-14.967,4.331-21.756,7.957a21.264,21.264,0,0,0-5.457,4.261,48.075,48.075,0,0,0-5.5,7.941c-1.366,2.191,2.094,4.2,3.454,2.019,2.476-3.971,4.745-8.077,8.952-10.457a53.817,53.817,0,0,1,9.014-3.888c7.694-2.723,15.559-4.976,23.417-7.17q4.877-1.362,9.768-2.667c2.484-.666,1.43-4.525-1.064-3.857Z"/><path class="c" d="M170.088,130.26c13.882,4.588,28.136,7.986,41.994,12.649a13.874,13.874,0,0,1,5.845,3.242c1.389,1.387,2.681,2.874,3.945,4.375,1.661,1.971,4.478-.871,2.829-2.829-2.415-2.867-4.846-5.875-8.347-7.425a91.708,91.708,0,0,0-10.616-3.556c-7.83-2.368-15.7-4.594-23.547-6.915-3.692-1.092-7.384-2.19-11.039-3.4-2.45-.809-3.5,3.052-1.064,3.858Z"/><path class="c" d="M137.6,278.9a11.733,11.733,0,0,0-9.627-1.719,2,2,0,0,0,1.063,3.857c.169-.044.338-.085.509-.119a1.868,1.868,0,0,0,.515-.09c-.316.041-.363.048-.143.023q.131-.014.261-.024c.173-.013.348-.021.522-.025q.458-.009.914.024a2.039,2.039,0,0,0,.521.052c-.316-.044-.364-.048-.144-.014.086.014.172.03.258.046a9.823,9.823,0,0,1,1.014.254c.15.046.819.185.861.309-.277-.117-.316-.132-.119-.044.079.036.158.074.236.113q.234.115.462.245a9.647,9.647,0,0,1,.878.566,2.01,2.01,0,0,0,2.737-.718,2.055,2.055,0,0,0-.718-2.736Z"/><path class="c" d="M134.777,300.972c-13.69-3.23-28.666-4-42.39-.566-2.5.625-1.439,4.484,1.063,3.857,13.023-3.259,27.275-2.5,40.264.566,2.5.591,3.572-3.265,1.063-3.857Z"/><path class="c" d="M135.3,290.5c-5.093-2.5-11.21-2.993-16.787-3.293a90.491,90.491,0,0,0-20.643,1.128,2.017,2.017,0,0,0-1.4,2.46,2.045,2.045,0,0,0,2.46,1.4,85.815,85.815,0,0,1,19.206-1c4.919.246,10.845.659,15.142,2.767,2.3,1.129,4.333-2.32,2.019-3.454Z"/><path class="c" d="M149.874,47.937c-4.591,2.512-8.97,5.4-13.572,7.891-.437.237-.876.471-1.321.692-.19.094-.383.183-.574.276-.208.092-.169.078.116-.044-.067.028-.136.055-.2.081-.056.078-.25.038-.319.1a1.762,1.762,0,0,1,1.669.447q.327.447.138.167a9.119,9.119,0,0,0-.6-1.162c-.5-1.089-.946-2.239-1.378-3.405A12.965,12.965,0,0,1,133,50.4a2.011,2.011,0,0,0-2.938-1.2A258.145,258.145,0,0,0,96.311,74.82c-1.915,1.728.921,4.55,2.829,2.828a251.7,251.7,0,0,1,32.937-24.985l-2.938-1.2a22.874,22.874,0,0,0,1.89,5.254c.711,1.7,1.562,4.6,3.974,4.074a16.779,16.779,0,0,0,4.236-2.019c2.192-1.223,4.348-2.506,6.506-3.787,2.04-1.212,4.066-2.458,6.148-3.6,2.259-1.236.243-4.691-2.019-3.454Z"/><path class="c" d="M158.457,52.679c5.919,1.2,10.431,4.862,14.073,9.573,3.45,4.464,6.662,9.821,7.9,15.381.561,2.511,4.418,1.448,3.857-1.063-1.381-6.19-4.991-12.092-8.848-17.039-4.083-5.237-9.315-9.365-15.922-10.709-2.513-.511-3.588,3.343-1.063,3.857Z"/><path class="c" d="M173.14,17.653c-2.824-6.193-9.116-10.288-15.156-12.907A56.191,56.191,0,0,0,136.607.008c-3.784-.052-8.4.1-11.68,2.222a2.018,2.018,0,0,0-.718,2.736c1.488,2.021,4.35,2.636,6.5,3.659L131.717,4.9a47.413,47.413,0,0,0-23.685,5.61,41.426,41.426,0,0,0-8.058,5.972c-1.212,1.148-3.018,2.663-3.523,4.329-1.135,3.743,4.9,2.917,6.833,2.82l-1.414-3.414a43.4,43.4,0,0,0-13.5,20.969C86.435,47.9,86.129,55.323,86.6,62.257A29.393,29.393,0,0,0,88.62,72.274a2.014,2.014,0,0,0,2.736.718,2.051,2.051,0,0,0,.718-2.737c.114.257-.132-.343-.158-.419q-.138-.389-.253-.784c-.186-.629-.335-1.27-.463-1.913a35.519,35.519,0,0,1-.54-4.045,72.026,72.026,0,0,1-.079-10.082,43.066,43.066,0,0,1,5.632-19.887A38.958,38.958,0,0,1,104.7,23.043c1.322-1.109.25-3.5-1.415-3.414-.769.039-1.537.1-2.307.126-.449.016-.9.028-1.347.012a2.225,2.225,0,0,0-.567-.035c.12-.034.551.24.332.08l.718.717-.037-.063.273,1.01a2.239,2.239,0,0,1-.189.767c.08-.062.11-.214.183-.288a2.577,2.577,0,0,0,.2-.277c-.351.479.066-.072.142-.16q.963-1.108,2.023-2.123a36.99,36.99,0,0,1,7.181-5.343c6.5-3.72,14.393-5.265,21.826-5.154,1.894.028,2.845-2.854,1.01-3.727-.932-.444-1.9-.809-2.844-1.225-.548-.241-1.095-.487-1.623-.768-.187-.1-.365-.224-.555-.315-.322-.155-.3-.262-.042.085l-.717,2.736c2.5-1.617,6.051-1.664,8.93-1.679a46.945,46.945,0,0,1,9.346.94c6.5,1.285,13.059,3.6,18.42,7.58a18.723,18.723,0,0,1,6.045,7.147,2.015,2.015,0,0,0,2.736.717,2.046,2.046,0,0,0,.717-2.736Z"/><path class="c" d="M175.942,24.88c3.155,1.409,5.629,4.146,7.609,6.909a32.082,32.082,0,0,1,4.9,9.639,68.416,68.416,0,0,1,2.246,21.3,28.688,28.688,0,0,1-1.465,9.33,2.015,2.015,0,0,0,1.4,2.46,2.045,2.045,0,0,0,2.46-1.4,29.62,29.62,0,0,0,1.537-8.9A78.49,78.49,0,0,0,194.4,52.54a66.782,66.782,0,0,0-1.926-11.587,35.02,35.02,0,0,0-4.927-10.4c-2.436-3.578-5.548-7.32-9.59-9.125a2.063,2.063,0,0,0-2.737.718,2.015,2.015,0,0,0,.718,2.736Z"/><path class="c" d="M187.341,76.207c2.055-1.736,5.668-1.292,6.882,1.241a10.944,10.944,0,0,1,.666,4.62,24.121,24.121,0,0,1-.545,5.187,22.794,22.794,0,0,1-3.9,8.94,6.482,6.482,0,0,1-3.145,2.6,34.6,34.6,0,0,1-4.271.618,2.012,2.012,0,0,0-1.4,2.46,2.052,2.052,0,0,0,2.46,1.4c1.943-.276,3.916-.3,5.723-1.161a12.4,12.4,0,0,0,4.322-4.224A27.507,27.507,0,0,0,198.656,85.6c.509-3.974.676-9.246-2.533-12.189a8.759,8.759,0,0,0-11.61-.034c-1.969,1.664.872,4.481,2.828,2.829Z"/><path class="c" d="M182.31,95.6a22.793,22.793,0,0,1-1.072,5.708c-.212.709-.446,1.412-.681,2.114-.066.2-.134.394-.2.591s-.213.513-.045.125a44.053,44.053,0,0,1-3,5.575,54.909,54.909,0,0,1-11.963,14.09,22.332,22.332,0,0,1-8.846,4.56c-2.507.58-1.446,4.438,1.063,3.857,6.749-1.563,12.346-6.506,16.743-11.634a60.133,60.133,0,0,0,9.308-14.087,29.692,29.692,0,0,0,2.7-10.9c.091-2.574-3.909-2.571-4,0Z"/><path class="c" d="M97.266,71.9a8.768,8.768,0,0,0-11.611.034c-3.335,3.059-3.034,8.625-2.462,12.72a26.8,26.8,0,0,0,4.93,12.405c2.587,3.4,6.381,6.08,10.824,5.14,2.517-.532,1.452-4.389-1.063-3.857-2.766.585-5.324-1.887-6.791-3.956a24.58,24.58,0,0,1-4.2-13.8,10.248,10.248,0,0,1,.762-4.807c1.3-2.385,4.793-2.737,6.786-1.054,1.955,1.652,4.8-1.164,2.829-2.828Z"/><path class="c" d="M95.051,90.126a63.584,63.584,0,0,0,5.243,19.581,47.567,47.567,0,0,0,16.989,19.355,31.834,31.834,0,0,0,12.479,4.87,2.066,2.066,0,0,0,2.46-1.4,2.015,2.015,0,0,0-1.4-2.46c-7.635-1.138-14.115-5.566-19.327-11.088a45.043,45.043,0,0,1-10.8-19.952,71.522,71.522,0,0,1-1.643-8.909,2.063,2.063,0,0,0-2-2,2.012,2.012,0,0,0-2,2Z"/><path class="c" d="M114,129.664c-.684,7.551-2.363,15.051-2.148,22.667.033,1.169,1.273,2.436,2.532,1.929,5.783-2.331,12.22-2.607,18.357-1.929a2.012,2.012,0,0,0,2-2,2.047,2.047,0,0,0-2-2c-6.439-.711-13.356-.373-19.421,2.071l2.532,1.929c-.215-7.616,1.464-15.116,2.148-22.667a2.015,2.015,0,0,0-2-2,2.043,2.043,0,0,0-2,2Z"/><path class="c" d="M124.369,137.529a35.576,35.576,0,0,0,2.622,5.337c1.458,2.656,2.963,5.285,4.444,7.928,2.852,5.091,6.12,10.416,7.923,15.847.579,1.743,3.436,2.056,3.857,0a10.258,10.258,0,0,1,.569-1.723c.083-.207-.034.078-.043.1.045-.107.091-.214.139-.32.088-.2.176-.4.266-.593.215-.469.438-.935.664-1.4,1.074-2.2,2.234-4.352,3.405-6.5,2.571-4.717,5.253-9.373,7.8-14.1a47.114,47.114,0,0,0,2.659-5.46,2.016,2.016,0,0,0-1.4-2.461,2.046,2.046,0,0,0-2.461,1.4c-.221.582.129-.241-.175.416-.166.36-.335.717-.511,1.072-.434.878-.89,1.745-1.352,2.609-1.178,2.207-2.4,4.391-3.616,6.576-2.589,4.645-5.243,9.269-7.6,14.036a22.824,22.824,0,0,0-2.2,5.291h3.857c-1.892-5.7-5.1-11.031-8.016-16.247-1.5-2.685-3.027-5.354-4.514-8.046-.57-1.034-1.137-2.07-1.673-3.121-.2-.394-.391-.792-.582-1.191-.056-.118-.3-.713-.059-.118-.052-.128-.1-.257-.145-.388-.837-2.418-4.7-1.378-3.857,1.063Z"/><path class="c" d="M162.147,131.529c1.536,7.117,3.161,14.5,1.989,21.8l2.938-1.2a46.421,46.421,0,0,0-17.3-4.363c-2.575-.093-2.571,3.907,0,4a41.343,41.343,0,0,1,15.276,3.817c1.042.476,2.714.2,2.938-1.2,1.3-8.07-.287-16.042-1.989-23.927-.543-2.515-4.4-1.451-3.857,1.063Z"/><path class="c" d="M139.287,166.109c.384,7.368.291,14.783.339,22.158.069,10.651.093,21.3-.018,31.955-.042,4.035-.07,8.078-.274,12.109-.129,2.573,3.871,2.566,4,0,.429-8.5.333-17.042.343-25.55q.018-15.506-.171-31.011c-.044-3.219-.052-6.446-.219-9.661-.134-2.561-4.135-2.577-4,0Z"/><path class="a" d="M80.9,233.343c6.776-.366,13.237.341,18.445,5.65,3.074,3.134,8.917,8.127,9.349,13.114.171,1.986-1.12,5.058-3.308,6.01l-6.028,13.144c1.536,1.7,1.684,2.952.8,3.984a4.7,4.7,0,0,1-4.473,1.619,8.038,8.038,0,0,1-4.465-2.058c.511,1.324-3.164,2.891-4.1,3.046-3.474.576-5.778-1.111-8.088-3.365.755,3.143-4.021,6.328-7.322,3.821-3.381-2.568-5.8-4.608-7.613-8.094-1.757-3.385-2.376-7-3.407-9.471-1.615-4.157-5.295-7.053-4.68-9.629,1.009-4.789,6.2-10.542,9.127-13.16,3.775-3.378,10.908-4.348,15.767-4.611"/><path class="c" d="M95.832,250.914c.746,1.564,12.785,22.576,15.025,26.377l1.707-.679c-3.023-7.459-22.865-51.119-27.547-60.505a2.277,2.277,0,0,0-2.836-1.115c-.279.1-.563.212-.844.321a2.176,2.176,0,0,0-1.211,2.929c2.343,5.19,5.407,12.214,8.373,17.465,2.5,4.426,5.252,10.556,7.333,15.207"/><path class="c" d="M94.105,251.923c1.42,2.924,3.177,5.72,4.783,8.543q3.742,6.582,7.522,13.141c.9,1.567,1.8,3.135,2.72,4.693a2.021,2.021,0,0,0,2.259.919l1.707-.679c.911-.362,1.839-1.372,1.4-2.46-4.7-11.557-10.089-22.865-15.269-34.209q-4.472-9.793-9.024-19.55c-1-2.127-2-4.253-3.032-6.363-.865-1.768-2.19-3.155-4.322-3.107-2.758.062-5.393,2.4-4.827,5.286a19.772,19.772,0,0,0,1.663,3.97q.96,2.133,1.932,4.26c1.386,3.015,2.809,6.018,4.382,8.941,2.93,5.443,5.584,10.973,8.109,16.615a2.014,2.014,0,0,0,2.736.718,2.051,2.051,0,0,0,.718-2.737c-2.143-4.787-4.274-9.6-6.781-14.209s-4.8-9.3-6.959-14.09q-.752-1.666-1.5-3.335c-.117-.26-.491-.762-.348-1.074-.058.128.7-.355.874-.345.616.036,1.042,1.478,1.294,2,1.01,2.087,2,4.186,2.98,6.286Q96,244.112,104.534,263.25q1.959,4.373,3.892,8.756.711,1.617,1.41,3.237l.3.693c.064.151.333.79.085.2.14.336.281.672.418,1.009l1.4-2.46-1.707.679,2.258.919c-4.451-7.56-8.779-15.2-13.081-22.845-.656-1.168-1.359-2.326-1.944-3.532-1.125-2.315-4.575-.289-3.454,2.019Z"/><path class="c" d="M80.9,235.343a29.308,29.308,0,0,1,10.348.929c3.379,1.064,5.744,3.228,8.214,5.653,2.372,2.329,4.884,4.719,6.417,7.713,1.174,2.292,1.137,5.472-1.5,6.752-2.316,1.124-.29,4.574,2.019,3.454a8.46,8.46,0,0,0,4.311-7.334c.021-3.182-1.9-6.1-3.806-8.486a78.013,78.013,0,0,0-6.141-6.445,20.737,20.737,0,0,0-8.626-5.218A32.88,32.88,0,0,0,80.9,231.343c-2.562.131-2.577,4.132,0,4Z"/><path class="a" d="M93.189,248.56c2.028,3.7,7.233,9.893,9.261,13.589.57,1.038,2.361,4.078,2.445,5.259.092,1.3-2.015,4.568-6.111,3.167,1.625,1.833,2.388,3.488,1.371,4.67a4.7,4.7,0,0,1-4.473,1.619,8.038,8.038,0,0,1-4.465-2.058c.142,1.623-2.368,2.47-3.3,2.625-3.474.575-6.278-.89-8.884-2.944-1.956,3.634-4.021,6.328-7.322,3.821-3.381-2.568-5.8-4.608-7.613-8.094"/><path class="c" d="M71.279,268.973a36.01,36.01,0,0,0,6.335,6.929,2.168,2.168,0,0,0,1.415.585,2,2,0,0,0,1.414-3.414,32.585,32.585,0,0,1-5.184-5.4l.313.4q-.427-.553-.839-1.119a2.167,2.167,0,0,0-1.2-.919,2,2,0,0,0-2.259,2.938Z"/><path class="c" d="M77.032,261.939A107.931,107.931,0,0,0,89.8,276.22a2,2,0,1,0,2.828-2.829A102.489,102.489,0,0,1,80.486,259.92a2.063,2.063,0,0,0-2.736-.717,2.013,2.013,0,0,0-.718,2.736Z"/><path class="c" d="M84.39,255.528a149.37,149.37,0,0,0,13.554,17.148,2,2,0,0,0,2.829-2.829A141.541,141.541,0,0,1,87.844,253.51a2.05,2.05,0,0,0-2.736-.718,2.018,2.018,0,0,0-.718,2.736Z"/><path class="c" d="M80.9,231.343c-5.377.305-11.549,1.016-16.031,4.279a30.677,30.677,0,0,0-5.383,5.359,29.306,29.306,0,0,0-4.7,7.411,8.78,8.78,0,0,0-.846,3.412,7.355,7.355,0,0,0,1.163,3.467c1.36,2.33,3.1,4.36,4.011,6.94,1.09,3.088,1.792,6.269,3.345,9.184a22.14,22.14,0,0,0,5.619,6.591c2.565,2.111,5.193,4.114,8.666,2.789,2.841-1.084,4.8-3.722,4.213-6.819L77.614,275.9c2.731,2.634,6.13,4.783,10.1,3.866,2.385-.552,6.194-2.512,5.432-5.494L89.8,276.22c2.862,2.264,7.031,3.916,10.413,1.618a4.957,4.957,0,0,0,2.482-4.052c-.043-1.93-1.448-3.521-2.761-4.783l-1.946,3.343c2.706,1.024,6.115,1.169,8.262-1.1a5.121,5.121,0,0,0,.852-5.969c-1.972-3.807-4.954-7.08-7.19-10.736a85.972,85.972,0,0,1-4.552-9.1,2.016,2.016,0,0,0-2.737-.718,2.046,2.046,0,0,0-.717,2.736,87.739,87.739,0,0,0,4.384,8.828c1.259,2.087,2.683,4.048,4.08,6.042.772,1.1,1.541,2.208,2.277,3.335.275.422.551.846.8,1.283.1.175.208.351.293.535.056.123-.116-.081-.01-.016-.086-.053-.006.461.034.136-.011.089-.232.738-.113.457a1.266,1.266,0,0,1-.612.686c-1.149.7-2.76.214-3.99-.251-1.913-.723-3.318,2.025-1.946,3.343a5.9,5.9,0,0,1,1.588,1.982c.067.213-.076.2.045.017a2.665,2.665,0,0,1-1.047.861c-1.7.772-3.743-.256-5.063-1.3-1.493-1.181-3.876-.139-3.343,1.946a.8.8,0,0,1,.115-.745c.139-.211.148-.245.028-.1a1.876,1.876,0,0,0-.264.253,10.566,10.566,0,0,1-1.216.7,4.714,4.714,0,0,1-1.841.513c-2.335.113-4.079-1.351-5.667-2.883a2.017,2.017,0,0,0-3.343,1.946c.262,1.372-1.9,2.3-2.982,2.185a4.834,4.834,0,0,1-2.3-1.314,34.439,34.439,0,0,1-2.84-2.447,17.214,17.214,0,0,1-4.046-6.219c-.882-2.3-1.4-4.725-2.318-7.013a37.914,37.914,0,0,0-3.646-6.294c-1.138-1.776-1.219-2.384-.388-4.3a29.384,29.384,0,0,1,8.207-10.454c3.748-3.036,9.483-3.554,14.113-3.817,2.559-.145,2.576-4.146,0-4Z"/><path class="a" d="M215.135,271c.844-.727,1.656-1.444,2.4-2.114,3.835-3.462,8.07-5.842,9.439-10.89a17.239,17.239,0,0,0-.513-11.332c-.788-2.177-2.579-5.718-4.111-7.111-2.023-1.839-5.077-4.4-8.074-5.037-3.277-.794-11.407,1.222-14.963,1.037-5.1-.265-8.688,1.537-13.481,3.63-4.448,1.941-8.89,3.519-13.334,5.74a3.026,3.026,0,0,0-.518,4.667c2.108,1.888,6.889.556,10,.556l2.421.293c-3.9,2.844-8.745,6.4-10.273,7.929-1.964,1.969-4.273,3.685-4.074,5.778.38,4,4.074,3.629,5.481,2.889l.125-.066-.865,1.1c-1.782,2.27-2.223,5.037-.188,6.249a8.007,8.007,0,0,0,7.859-.9c-1.385,1.857-1.209,4.033.415,4.967a7.664,7.664,0,0,0,5.528.3,32.542,32.542,0,0,0,5.637-3c1.753-.984,9.267-5.468,13.024-8.165l-.424.4c-2.037,1.926-5.15,4.626-6.3,6.445a2.393,2.393,0,0,0,1.63,3.778,5.485,5.485,0,0,0,4.148-.315C207.985,276.912,211.8,273.875,215.135,271Z"/><path class="c" d="M181.977,248.149c-1.978.026-3.932.4-5.909.451-.855.021-3,.164-2.972-1.132.016-.748.448-.838,1.075-1.143,1.244-.6,2.506-1.172,3.777-1.716,2.506-1.072,5.046-2.061,7.556-3.124,4.157-1.761,8.29-3.985,12.922-3.955a89.835,89.835,0,0,0,10.486-.969,22.467,22.467,0,0,1,4.422-.194,12.158,12.158,0,0,1,5.593,2.875,14.476,14.476,0,0,1,3.747,4.092,23.786,23.786,0,0,1,2.429,5.647c1.113,4.032.726,8.89-2.01,12.22a30.9,30.9,0,0,1-4.363,4.059c-1.637,1.348-3.206,2.768-4.809,4.156-1.73,1.5-3.485,2.976-5.31,4.356-1.243.939-2.861,2.436-4.477,2.629-.447.054-2.075.023-2.234-.516-.136-.461.706-1.226.984-1.539,1.593-1.794,3.429-3.364,5.174-5,1.878-1.768-.954-4.593-2.829-2.829a71.089,71.089,0,0,0-5.4,5.261c-1.653,1.925-2.822,4.518-.935,6.747,1.567,1.85,4.688,2.281,6.913,1.587a17.821,17.821,0,0,0,5.234-3.2c3.978-3.048,7.676-6.434,11.515-9.65a21.772,21.772,0,0,0,4.908-5.36,17.5,17.5,0,0,0,2.18-7.679c.377-5.13-1.7-10.751-4.791-14.815a22.032,22.032,0,0,0-5.876-5.009,12.606,12.606,0,0,0-6.571-2.064c-4.176-.039-8.259,1.195-12.426,1.234a26.916,26.916,0,0,0-7.493.819,67.667,67.667,0,0,0-7.893,3.169c-3.315,1.438-6.7,2.712-10,4.182-2.66,1.183-5.512,2.362-5.49,5.755.042,6.832,8.675,4.712,12.871,4.657,2.572-.034,2.579-4.034,0-4Z"/><path class="c" d="M192.949,252.256c.451-.349-.426.32-.573.429q-.542.4-1.087.8-1.2.877-2.413,1.742-2.654,1.9-5.325,3.779a107.8,107.8,0,0,0-10.174,7.653c-1.917,1.727.92,4.548,2.829,2.829a103,103,0,0,1,9.74-7.294c3.3-2.331,6.635-4.634,9.832-7.11a2.013,2.013,0,0,0,0-2.829,2.053,2.053,0,0,0-2.829,0Z"/><path class="c" d="M206.933,265.142c-.45.365-1.443,1.066-2.2,1.579-1.082.735-2.181,1.445-3.285,2.146q-3.162,2.007-6.385,3.915a57.91,57.91,0,0,1-6.449,3.7,6.164,6.164,0,0,1-4.243.384c-1.3-.434-.807-1.523-.181-2.431,1.11-1.607-1.123-3.9-2.736-2.736a6.122,6.122,0,0,1-5.832.921c.236.11.022.03-.064-.062a1.1,1.1,0,0,1-.275-.348,1.743,1.743,0,0,1,.047-.908,7.5,7.5,0,0,1,1.741-2.918c1.353-1.723-.29-4.264-2.423-3.141-.47.247.113.011-.25.11-.071.019-.781.174-.414.124a1.921,1.921,0,0,1-1.15-.069.868.868,0,0,1-.58-.525,1.716,1.716,0,0,1,0-1.616c.734-1.448,2.433-2.7,3.6-3.784.752-.695,1.559-1.332,2.365-1.964,4.085-3.2,8.417-6.079,12.5-9.288a2.012,2.012,0,0,0,0-2.828,2.051,2.051,0,0,0-2.829,0c-.24.189.324-.242-.093.072l-.413.311q-.636.477-1.277.945-1.47,1.078-2.944,2.15c-2.224,1.622-4.448,3.247-6.63,4.927-3.882,2.989-11.74,8.548-7.11,13.947,1.789,2.086,4.948,2.153,7.249.942l-2.424-3.141a12.257,12.257,0,0,0-2.843,5.016,5.029,5.029,0,0,0,1.92,5.293c2.88,1.988,7.481,1.209,10.153-.712l-2.736-2.736a5.69,5.69,0,0,0-.64,5.879,5.887,5.887,0,0,0,4.824,2.714c4.055.433,7.306-1.963,10.638-3.882a107.381,107.381,0,0,0,14.2-9.16,2.012,2.012,0,0,0,0-2.828,2.046,2.046,0,0,0-2.828,0Z"/><path class="c" d="M200.227,258.5c-3.45,2.147-6.863,4.355-10.176,6.709A89.149,89.149,0,0,0,181.3,271.7c-1.9,1.743.932,4.565,2.829,2.829a32.833,32.833,0,0,1,3.522-2.7c1.584-1.1,3.129-2.257,4.705-3.371,3.222-2.278,6.537-4.42,9.886-6.5,2.181-1.358.176-4.82-2.018-3.454Z"/><path class="c" d="M131.847,117.033c2.526,2.473,6.53,3.188,9.919,3.185s7.394-.711,9.921-3.185c1.843-1.8-.986-4.631-2.828-2.828-.083.08-.5.436-.254.24.23-.183-.31.206-.435.283-.22.136-.447.26-.678.376q-.234.119-.473.222c.271-.117-.012,0-.137.047a14.872,14.872,0,0,1-5.116.845,14.533,14.533,0,0,1-5.026-.81c-.021-.008-.6-.245-.229-.082-.133-.058-.265-.12-.4-.184-.257-.127-.509-.264-.753-.414-.188-.116-.363-.245-.545-.369.51.347-.017-.032-.142-.154-1.841-1.8-4.672,1.023-2.828,2.828Z"/><path class="c" d="M141.3,98.333a40.806,40.806,0,0,1,.958,4.38l-.072-.531a2.654,2.654,0,0,1,.017.6l.071-.531a1.5,1.5,0,0,1-.066.272l.2-.478a1.1,1.1,0,0,1-.1.175l.313-.405a.908.908,0,0,1-.143.141l.405-.313a2.879,2.879,0,0,1-.347.184l.478-.2a2.549,2.549,0,0,1-.585.171l.531-.072a2.283,2.283,0,0,1-.548,0l.531.072c-.207-.029-.41-.079-.617-.107a2.216,2.216,0,0,0-1.541.2,2,2,0,0,0-.717,2.737,1.913,1.913,0,0,0,1.195.919c.449.06.885.175,1.342.195a4.238,4.238,0,0,0,1.95-.459,2.76,2.76,0,0,0,1.546-1.826,4.693,4.693,0,0,0-.021-2c-.238-1.411-.565-2.81-.928-4.194a2,2,0,0,0-3.857,1.063Z"/><path class="c" d="M118.032,86.505c-.732,2.377-.255,7.845,4.248,8.31,5.952-.035,6.269-6.646,4.265-9.755C124.905,82.515,120.081,81.457,118.032,86.505Z"/><path class="c" d="M164.674,86.505c.731,2.377.255,7.845-4.248,8.31-5.952-.036-6.269-6.647-4.266-9.755C157.8,82.515,162.624,81.457,164.674,86.505Z"/></svg>